M48
; DRILL file {KiCad 8.0.2} date 2024-05-05T14:43:43+0200
; FORMAT={-:-/ absolute / inch / decimal}
; #@! TF.CreationDate,2024-05-05T14:43:43+02:00
; #@! TF.GenerationSoftware,Kicad,Pcbnew,8.0.2
; #@! TF.FileFunction,Plated,1,2,PTH
FMAT,2
INCH
; #@! TA.AperFunction,Plated,PTH,ViaDrill
T1C0.0118
; #@! TA.AperFunction,Plated,PTH,ViaDrill
T2C0.0157
; #@! TA.AperFunction,Plated,PTH,ComponentDrill
T3C0.0374
; #@! TA.AperFunction,Plated,PTH,ComponentDrill
T4C0.0394
%
G90
G05
T1
X0.9961Y-2.0945
X1.0394Y-1.9882
X1.2579Y-1.8878
X1.2638Y-1.8189
X1.3543Y-2.3189
X1.4803Y-1.5
X1.4921Y-1.6496
X1.5039Y-2.2913
X2.5591Y-1.9587
X2.6083Y-1.4173
X3.1496Y-1.3189
X3.2776Y-2.1161
T2
X0.811Y-1.9961
X0.8583Y-2.2992
X0.8937Y-1.5512
X1.0728Y-2.9626
X1.0728Y-4.0256
X1.1417Y-3.0709
X1.1417Y-4.1339
X1.1818Y-2.3261
X1.2441Y-1.4173
X1.2441Y-2.2165
X1.252Y-1.622
X1.2894Y-2.7362
X1.2894Y-2.8346
X1.2894Y-3.7992
X1.2894Y-3.8976
X1.4449Y-1.4252
X1.4469Y-2.8839
X1.4469Y-2.9331
X1.4469Y-3.9469
X1.4469Y-3.9961
X1.5965Y-1.5689
X1.6043Y-3.3169
X1.6043Y-4.3799
X1.624Y-2.687
X1.624Y-2.7854
X1.624Y-3.75
X1.624Y-3.8484
X1.6634Y-3.248
X1.6634Y-4.311
X1.8504Y-3.0512
X1.8504Y-4.1142
X1.9291Y-3.0217
X1.9291Y-4.0846
X2.0374Y-2.7854
X2.0374Y-3.8484
X2.8051Y-2.9626
X2.8051Y-4.0256
X2.874Y-3.0709
X2.874Y-4.1339
X3.0217Y-2.7362
X3.0217Y-2.8346
X3.0217Y-3.7992
X3.0217Y-3.8976
X3.1791Y-2.8839
X3.1791Y-2.9331
X3.1791Y-3.9469
X3.1791Y-3.9961
X3.3366Y-3.3169
X3.3366Y-4.3799
X3.3563Y-2.687
X3.3563Y-2.7854
X3.3563Y-3.75
X3.3563Y-3.8484
X3.3957Y-3.248
X3.3957Y-4.311
X3.5827Y-3.0512
X3.5827Y-4.1142
X3.6614Y-3.0217
X3.6614Y-4.0846
X3.7697Y-2.7854
X3.7697Y-3.8484
T3
X1.213Y-3.3986
X1.213Y-4.4616
X1.3115Y-3.3986
X1.3115Y-4.4616
X1.4099Y-3.3986
X1.4099Y-4.4616
X1.5083Y-3.3986
X1.5083Y-4.4616
X1.6067Y-3.3986
X1.6067Y-4.4616
X1.7052Y-3.3986
X1.7052Y-4.4616
X1.7323Y-1.9488
X1.7323Y-2.0472
X1.7323Y-2.1457
X1.7323Y-2.2441
X1.7362Y-1.4134
X1.7362Y-1.5118
X1.7362Y-1.6102
X1.7362Y-1.7087
X2.1358Y-1.1614
X2.1358Y-1.2598
X2.1358Y-1.3583
X2.1358Y-1.4567
X2.1358Y-1.5551
X2.1358Y-1.6535
X2.1358Y-1.8996
X2.1358Y-1.998
X2.1358Y-2.0965
X2.1358Y-2.1949
X2.1358Y-2.2933
X2.1358Y-2.3917
X2.7756Y-2.4311
X2.874Y-2.4311
X2.9453Y-3.3986
X2.9453Y-4.4616
X2.9724Y-2.4311
X3.0437Y-3.3986
X3.0437Y-4.4616
X3.0709Y-2.4311
X3.1422Y-3.3986
X3.1422Y-4.4616
X3.2406Y-3.3986
X3.2406Y-4.4616
X3.339Y-3.3986
X3.339Y-4.4616
X3.4374Y-3.3986
X3.4374Y-4.4616
X3.7303Y-1.1614
X3.7303Y-1.2598
X3.7303Y-1.3583
X3.7303Y-1.4567
X3.7303Y-1.5551
X3.7303Y-1.6535
X3.7303Y-1.8996
X3.7303Y-1.998
X3.7303Y-2.0965
X3.7303Y-2.1949
X3.7303Y-2.2933
X3.7303Y-2.3917
T4
X0.7047Y-1.2559
X0.7047Y-1.3559
X0.7047Y-1.4559
X0.7047Y-1.5559
X0.7047Y-2.1346
X0.7047Y-2.2346
X0.7047Y-2.3346
X0.7047Y-2.4346
X1.0591Y-2.3425
X1.0591Y-2.4425
X1.1921Y-1.248
X1.2039Y-2.4409
X1.2921Y-1.248
X1.3039Y-2.4409
X1.3921Y-1.248
X1.4039Y-2.4409
X1.4921Y-1.248
X1.5039Y-2.4409
X2.8823Y-1.2805
X2.9823Y-1.2805
M30
