%TF.GenerationSoftware,KiCad,Pcbnew,8.0.2*%
%TF.CreationDate,2024-05-05T14:43:23+02:00*%
%TF.ProjectId,Panelizacja 1,50616e65-6c69-47a6-9163-6a6120312e6b,rev?*%
%TF.SameCoordinates,Original*%
%TF.FileFunction,Soldermask,Bot*%
%TF.FilePolarity,Negative*%
%FSLAX46Y46*%
G04 Gerber Fmt 4.6, Leading zero omitted, Abs format (unit mm)*
G04 Created by KiCad (PCBNEW 8.0.2) date 2024-05-05 14:43:23*
%MOMM*%
%LPD*%
G01*
G04 APERTURE LIST*
G04 Aperture macros list*
%AMRoundRect*
0 Rectangle with rounded corners*
0 $1 Rounding radius*
0 $2 $3 $4 $5 $6 $7 $8 $9 X,Y pos of 4 corners*
0 Add a 4 corners polygon primitive as box body*
4,1,4,$2,$3,$4,$5,$6,$7,$8,$9,$2,$3,0*
0 Add four circle primitives for the rounded corners*
1,1,$1+$1,$2,$3*
1,1,$1+$1,$4,$5*
1,1,$1+$1,$6,$7*
1,1,$1+$1,$8,$9*
0 Add four rect primitives between the rounded corners*
20,1,$1+$1,$2,$3,$4,$5,0*
20,1,$1+$1,$4,$5,$6,$7,0*
20,1,$1+$1,$6,$7,$8,$9,0*
20,1,$1+$1,$8,$9,$2,$3,0*%
G04 Aperture macros list end*
%ADD10R,1.700000X1.700000*%
%ADD11O,1.700000X1.700000*%
%ADD12RoundRect,0.250000X0.600000X0.725000X-0.600000X0.725000X-0.600000X-0.725000X0.600000X-0.725000X0*%
%ADD13O,1.700000X1.950000*%
%ADD14RoundRect,0.250000X0.725000X-0.600000X0.725000X0.600000X-0.725000X0.600000X-0.725000X-0.600000X0*%
%ADD15O,1.950000X1.700000*%
%ADD16RoundRect,0.250000X-0.725000X0.600000X-0.725000X-0.600000X0.725000X-0.600000X0.725000X0.600000X0*%
%ADD17C,1.200000*%
%ADD18RoundRect,0.160000X-0.160000X0.197500X-0.160000X-0.197500X0.160000X-0.197500X0.160000X0.197500X0*%
%ADD19RoundRect,0.160000X0.160000X-0.197500X0.160000X0.197500X-0.160000X0.197500X-0.160000X-0.197500X0*%
%ADD20RoundRect,0.197500X-0.632500X0.197500X-0.632500X-0.197500X0.632500X-0.197500X0.632500X0.197500X0*%
%ADD21RoundRect,0.155000X0.212500X0.155000X-0.212500X0.155000X-0.212500X-0.155000X0.212500X-0.155000X0*%
%ADD22RoundRect,0.160000X-0.197500X-0.160000X0.197500X-0.160000X0.197500X0.160000X-0.197500X0.160000X0*%
%ADD23RoundRect,0.160000X0.197500X0.160000X-0.197500X0.160000X-0.197500X-0.160000X0.197500X-0.160000X0*%
%ADD24RoundRect,0.100000X-0.637500X-0.100000X0.637500X-0.100000X0.637500X0.100000X-0.637500X0.100000X0*%
G04 APERTURE END LIST*
D10*
%TO.C,J6*%
X75750000Y-32525000D03*
D11*
X73210000Y-32525000D03*
%TD*%
D12*
%TO.C,J2*%
X78000000Y-61750000D03*
D13*
X75500000Y-61750000D03*
X73000000Y-61750000D03*
X70500000Y-61750000D03*
%TD*%
D14*
%TO.C,J1*%
X94750000Y-60750000D03*
D15*
X94750000Y-58250000D03*
X94750000Y-55750000D03*
X94750000Y-53250000D03*
X94750000Y-50750000D03*
X94750000Y-48250000D03*
%TD*%
D16*
%TO.C,J4*%
X54250000Y-29500000D03*
D15*
X54250000Y-32000000D03*
X54250000Y-34500000D03*
X54250000Y-37000000D03*
X54250000Y-39500000D03*
X54250000Y-42000000D03*
%TD*%
D16*
%TO.C,J5*%
X54250000Y-48250000D03*
D15*
X54250000Y-50750000D03*
X54250000Y-53250000D03*
X54250000Y-55750000D03*
X54250000Y-58250000D03*
X54250000Y-60750000D03*
%TD*%
D14*
%TO.C,J3*%
X94750000Y-42000000D03*
D15*
X94750000Y-39500000D03*
X94750000Y-37000000D03*
X94750000Y-34500000D03*
X94750000Y-32000000D03*
X94750000Y-29500000D03*
%TD*%
D17*
%TO.C,J1*%
X44911000Y-111325000D03*
D12*
X43311000Y-113325000D03*
D13*
X40811000Y-113325000D03*
X38311000Y-113325000D03*
X35811000Y-113325000D03*
X33311000Y-113325000D03*
X30811000Y-113325000D03*
%TD*%
D10*
%TO.C,J2*%
X30580000Y-62000000D03*
D11*
X33120000Y-62000000D03*
X35660000Y-62000000D03*
X38200000Y-62000000D03*
%TD*%
D10*
%TO.C,J4*%
X17900000Y-31900000D03*
D11*
X17900000Y-34440000D03*
X17900000Y-36980000D03*
X17900000Y-39520000D03*
%TD*%
D10*
%TO.C,J6*%
X26900000Y-59500000D03*
D11*
X26900000Y-62040000D03*
%TD*%
D17*
%TO.C,J1*%
X88911000Y-84325000D03*
D12*
X87311000Y-86325000D03*
D13*
X84811000Y-86325000D03*
X82311000Y-86325000D03*
X79811000Y-86325000D03*
X77311000Y-86325000D03*
X74811000Y-86325000D03*
%TD*%
D14*
%TO.C,J7*%
X44100000Y-43400000D03*
D15*
X44100000Y-40900000D03*
X44100000Y-38400000D03*
X44100000Y-35900000D03*
%TD*%
D10*
%TO.C,J3*%
X17900000Y-54220000D03*
D11*
X17900000Y-56760000D03*
X17900000Y-59300000D03*
X17900000Y-61840000D03*
%TD*%
D17*
%TO.C,J1*%
X44911000Y-84325000D03*
D12*
X43311000Y-86325000D03*
D13*
X40811000Y-86325000D03*
X38311000Y-86325000D03*
X35811000Y-86325000D03*
X33311000Y-86325000D03*
X30811000Y-86325000D03*
%TD*%
D10*
%TO.C,J5*%
X37900000Y-31700000D03*
D11*
X35360000Y-31700000D03*
X32820000Y-31700000D03*
X30280000Y-31700000D03*
%TD*%
D14*
%TO.C,J1*%
X44000000Y-57000000D03*
D15*
X44000000Y-54500000D03*
X44000000Y-52000000D03*
X44000000Y-49500000D03*
%TD*%
D17*
%TO.C,J1*%
X88911000Y-111325000D03*
D12*
X87311000Y-113325000D03*
D13*
X84811000Y-113325000D03*
X82311000Y-113325000D03*
X79811000Y-113325000D03*
X77311000Y-113325000D03*
X74811000Y-113325000D03*
%TD*%
D18*
%TO.C,R4*%
X38000000Y-108152500D03*
X38000000Y-109347500D03*
%TD*%
%TO.C,R8*%
X28000000Y-81152500D03*
X28000000Y-82347500D03*
%TD*%
D19*
%TO.C,R10*%
X35750000Y-79347500D03*
X35750000Y-78152500D03*
%TD*%
D20*
%TO.C,U5*%
X24000000Y-79350000D03*
X20000000Y-79350000D03*
X24000000Y-81150000D03*
X20000000Y-81150000D03*
%TD*%
%TO.C,U3*%
X88000000Y-106350000D03*
X84000000Y-106350000D03*
X88000000Y-108150000D03*
X84000000Y-108150000D03*
%TD*%
D18*
%TO.C,R4*%
X82000000Y-81152500D03*
X82000000Y-82347500D03*
%TD*%
D20*
%TO.C,U4*%
X78000000Y-106350000D03*
X74000000Y-106350000D03*
X78000000Y-108150000D03*
X74000000Y-108150000D03*
%TD*%
D18*
%TO.C,R4*%
X82000000Y-108152500D03*
X82000000Y-109347500D03*
%TD*%
D20*
%TO.C,U3*%
X88000000Y-79350000D03*
X84000000Y-79350000D03*
X88000000Y-81150000D03*
X84000000Y-81150000D03*
%TD*%
D18*
%TO.C,R9*%
X18000000Y-81152500D03*
X18000000Y-82347500D03*
%TD*%
D19*
%TO.C,R11*%
X26000000Y-106347500D03*
X26000000Y-105152500D03*
%TD*%
D20*
%TO.C,U3*%
X44000000Y-106350000D03*
X40000000Y-106350000D03*
X44000000Y-108150000D03*
X40000000Y-108150000D03*
%TD*%
D19*
%TO.C,R7*%
X21502500Y-38137500D03*
X21502500Y-36942500D03*
%TD*%
%TO.C,R10*%
X35750000Y-106347500D03*
X35750000Y-105152500D03*
%TD*%
D18*
%TO.C,R9*%
X18000000Y-108152500D03*
X18000000Y-109347500D03*
%TD*%
D21*
%TO.C,C1*%
X33767500Y-53200000D03*
X32632500Y-53200000D03*
%TD*%
D18*
%TO.C,R2*%
X92000000Y-81152500D03*
X92000000Y-82347500D03*
%TD*%
D19*
%TO.C,R1*%
X39400000Y-39595000D03*
X39400000Y-38400000D03*
%TD*%
%TO.C,R10*%
X79750000Y-106347500D03*
X79750000Y-105152500D03*
%TD*%
D20*
%TO.C,U4*%
X34000000Y-79350000D03*
X30000000Y-79350000D03*
X34000000Y-81150000D03*
X30000000Y-81150000D03*
%TD*%
D22*
%TO.C,R4*%
X37005000Y-59300000D03*
X38200000Y-59300000D03*
%TD*%
D18*
%TO.C,R8*%
X20400000Y-38342500D03*
X20400000Y-39537500D03*
%TD*%
D19*
%TO.C,R11*%
X26000000Y-79347500D03*
X26000000Y-78152500D03*
%TD*%
%TO.C,R11*%
X70000000Y-79347500D03*
X70000000Y-78152500D03*
%TD*%
%TO.C,R5*%
X89750000Y-79347500D03*
X89750000Y-78152500D03*
%TD*%
%TO.C,R5*%
X45750000Y-106347500D03*
X45750000Y-105152500D03*
%TD*%
D20*
%TO.C,U2*%
X98000000Y-79350000D03*
X94000000Y-79350000D03*
X98000000Y-81150000D03*
X94000000Y-81150000D03*
%TD*%
D18*
%TO.C,R2*%
X38400000Y-39700000D03*
X38400000Y-40895000D03*
%TD*%
D23*
%TO.C,R13*%
X31495000Y-33900000D03*
X30300000Y-33900000D03*
%TD*%
D22*
%TO.C,R12*%
X31605000Y-35000000D03*
X32800000Y-35000000D03*
%TD*%
D18*
%TO.C,R9*%
X62000000Y-108152500D03*
X62000000Y-109347500D03*
%TD*%
%TO.C,R6*%
X21600000Y-59602500D03*
X21600000Y-60797500D03*
%TD*%
D19*
%TO.C,R3*%
X99750000Y-106347500D03*
X99750000Y-105152500D03*
%TD*%
D18*
%TO.C,R8*%
X72000000Y-81152500D03*
X72000000Y-82347500D03*
%TD*%
D19*
%TO.C,R5*%
X45750000Y-79347500D03*
X45750000Y-78152500D03*
%TD*%
D20*
%TO.C,U2*%
X54000000Y-79350000D03*
X50000000Y-79350000D03*
X54000000Y-81150000D03*
X50000000Y-81150000D03*
%TD*%
D24*
%TO.C,U1*%
X29937500Y-50475000D03*
X29937500Y-49825000D03*
X29937500Y-49175000D03*
X29937500Y-48525000D03*
X29937500Y-47875000D03*
X29937500Y-47225000D03*
X29937500Y-46575000D03*
X29937500Y-45925000D03*
X29937500Y-45275000D03*
X29937500Y-44625000D03*
X29937500Y-43975000D03*
X29937500Y-43325000D03*
X35662500Y-43325000D03*
X35662500Y-43975000D03*
X35662500Y-44625000D03*
X35662500Y-45275000D03*
X35662500Y-45925000D03*
X35662500Y-46575000D03*
X35662500Y-47225000D03*
X35662500Y-47875000D03*
X35662500Y-48525000D03*
X35662500Y-49175000D03*
X35662500Y-49825000D03*
X35662500Y-50475000D03*
%TD*%
D20*
%TO.C,U5*%
X24000000Y-106350000D03*
X20000000Y-106350000D03*
X24000000Y-108150000D03*
X20000000Y-108150000D03*
%TD*%
D19*
%TO.C,R3*%
X55750000Y-106347500D03*
X55750000Y-105152500D03*
%TD*%
D21*
%TO.C,C2*%
X33767500Y-52000000D03*
X32632500Y-52000000D03*
%TD*%
D18*
%TO.C,R2*%
X48000000Y-108152500D03*
X48000000Y-109347500D03*
%TD*%
D20*
%TO.C,U4*%
X78000000Y-79350000D03*
X74000000Y-79350000D03*
X78000000Y-81150000D03*
X74000000Y-81150000D03*
%TD*%
%TO.C,U3*%
X44000000Y-79350000D03*
X40000000Y-79350000D03*
X44000000Y-81150000D03*
X40000000Y-81150000D03*
%TD*%
D18*
%TO.C,R2*%
X92000000Y-108152500D03*
X92000000Y-109347500D03*
%TD*%
D19*
%TO.C,R5*%
X89750000Y-106347500D03*
X89750000Y-105152500D03*
%TD*%
%TO.C,R3*%
X99750000Y-79347500D03*
X99750000Y-78152500D03*
%TD*%
D20*
%TO.C,U5*%
X68000000Y-79350000D03*
X64000000Y-79350000D03*
X68000000Y-81150000D03*
X64000000Y-81150000D03*
%TD*%
D19*
%TO.C,R11*%
X70000000Y-106347500D03*
X70000000Y-105152500D03*
%TD*%
D18*
%TO.C,R8*%
X28000000Y-108152500D03*
X28000000Y-109347500D03*
%TD*%
D20*
%TO.C,U2*%
X98000000Y-106350000D03*
X94000000Y-106350000D03*
X98000000Y-108150000D03*
X94000000Y-108150000D03*
%TD*%
D19*
%TO.C,R5*%
X20500000Y-59395000D03*
X20500000Y-58200000D03*
%TD*%
D20*
%TO.C,U4*%
X34000000Y-106350000D03*
X30000000Y-106350000D03*
X34000000Y-108150000D03*
X30000000Y-108150000D03*
%TD*%
D18*
%TO.C,R4*%
X38000000Y-81152500D03*
X38000000Y-82347500D03*
%TD*%
%TO.C,R2*%
X48000000Y-81152500D03*
X48000000Y-82347500D03*
%TD*%
D20*
%TO.C,U5*%
X68000000Y-106350000D03*
X64000000Y-106350000D03*
X68000000Y-108150000D03*
X64000000Y-108150000D03*
%TD*%
D23*
%TO.C,R3*%
X36800000Y-58100000D03*
X35605000Y-58100000D03*
%TD*%
D18*
%TO.C,R9*%
X62000000Y-81152500D03*
X62000000Y-82347500D03*
%TD*%
D19*
%TO.C,R3*%
X55750000Y-79347500D03*
X55750000Y-78152500D03*
%TD*%
D18*
%TO.C,R8*%
X72000000Y-108152500D03*
X72000000Y-109347500D03*
%TD*%
D20*
%TO.C,U2*%
X54000000Y-106350000D03*
X50000000Y-106350000D03*
X54000000Y-108150000D03*
X50000000Y-108150000D03*
%TD*%
D19*
%TO.C,R10*%
X79750000Y-79347500D03*
X79750000Y-78152500D03*
%TD*%
M02*
