%TF.GenerationSoftware,KiCad,Pcbnew,8.0.2*%
%TF.CreationDate,2024-05-05T14:43:23+02:00*%
%TF.ProjectId,Panelizacja 1,50616e65-6c69-47a6-9163-6a6120312e6b,rev?*%
%TF.SameCoordinates,Original*%
%TF.FileFunction,Legend,Bot*%
%TF.FilePolarity,Positive*%
%FSLAX46Y46*%
G04 Gerber Fmt 4.6, Leading zero omitted, Abs format (unit mm)*
G04 Created by KiCad (PCBNEW 8.0.2) date 2024-05-05 14:43:23*
%MOMM*%
%LPD*%
G01*
G04 APERTURE LIST*
%ADD10C,0.160000*%
%ADD11C,0.120000*%
G04 APERTURE END LIST*
D10*
X38454299Y-106333333D02*
X37978108Y-106000000D01*
X38454299Y-105761905D02*
X37454299Y-105761905D01*
X37454299Y-105761905D02*
X37454299Y-106142857D01*
X37454299Y-106142857D02*
X37501918Y-106238095D01*
X37501918Y-106238095D02*
X37549537Y-106285714D01*
X37549537Y-106285714D02*
X37644775Y-106333333D01*
X37644775Y-106333333D02*
X37787632Y-106333333D01*
X37787632Y-106333333D02*
X37882870Y-106285714D01*
X37882870Y-106285714D02*
X37930489Y-106238095D01*
X37930489Y-106238095D02*
X37978108Y-106142857D01*
X37978108Y-106142857D02*
X37978108Y-105761905D01*
X37787632Y-107190476D02*
X38454299Y-107190476D01*
X37406680Y-106952381D02*
X38120965Y-106714286D01*
X38120965Y-106714286D02*
X38120965Y-107333333D01*
X28454299Y-79333333D02*
X27978108Y-79000000D01*
X28454299Y-78761905D02*
X27454299Y-78761905D01*
X27454299Y-78761905D02*
X27454299Y-79142857D01*
X27454299Y-79142857D02*
X27501918Y-79238095D01*
X27501918Y-79238095D02*
X27549537Y-79285714D01*
X27549537Y-79285714D02*
X27644775Y-79333333D01*
X27644775Y-79333333D02*
X27787632Y-79333333D01*
X27787632Y-79333333D02*
X27882870Y-79285714D01*
X27882870Y-79285714D02*
X27930489Y-79238095D01*
X27930489Y-79238095D02*
X27978108Y-79142857D01*
X27978108Y-79142857D02*
X27978108Y-78761905D01*
X27882870Y-79904762D02*
X27835251Y-79809524D01*
X27835251Y-79809524D02*
X27787632Y-79761905D01*
X27787632Y-79761905D02*
X27692394Y-79714286D01*
X27692394Y-79714286D02*
X27644775Y-79714286D01*
X27644775Y-79714286D02*
X27549537Y-79761905D01*
X27549537Y-79761905D02*
X27501918Y-79809524D01*
X27501918Y-79809524D02*
X27454299Y-79904762D01*
X27454299Y-79904762D02*
X27454299Y-80095238D01*
X27454299Y-80095238D02*
X27501918Y-80190476D01*
X27501918Y-80190476D02*
X27549537Y-80238095D01*
X27549537Y-80238095D02*
X27644775Y-80285714D01*
X27644775Y-80285714D02*
X27692394Y-80285714D01*
X27692394Y-80285714D02*
X27787632Y-80238095D01*
X27787632Y-80238095D02*
X27835251Y-80190476D01*
X27835251Y-80190476D02*
X27882870Y-80095238D01*
X27882870Y-80095238D02*
X27882870Y-79904762D01*
X27882870Y-79904762D02*
X27930489Y-79809524D01*
X27930489Y-79809524D02*
X27978108Y-79761905D01*
X27978108Y-79761905D02*
X28073346Y-79714286D01*
X28073346Y-79714286D02*
X28263822Y-79714286D01*
X28263822Y-79714286D02*
X28359060Y-79761905D01*
X28359060Y-79761905D02*
X28406680Y-79809524D01*
X28406680Y-79809524D02*
X28454299Y-79904762D01*
X28454299Y-79904762D02*
X28454299Y-80095238D01*
X28454299Y-80095238D02*
X28406680Y-80190476D01*
X28406680Y-80190476D02*
X28359060Y-80238095D01*
X28359060Y-80238095D02*
X28263822Y-80285714D01*
X28263822Y-80285714D02*
X28073346Y-80285714D01*
X28073346Y-80285714D02*
X27978108Y-80238095D01*
X27978108Y-80238095D02*
X27930489Y-80190476D01*
X27930489Y-80190476D02*
X27882870Y-80095238D01*
X36204299Y-75357142D02*
X35728108Y-75023809D01*
X36204299Y-74785714D02*
X35204299Y-74785714D01*
X35204299Y-74785714D02*
X35204299Y-75166666D01*
X35204299Y-75166666D02*
X35251918Y-75261904D01*
X35251918Y-75261904D02*
X35299537Y-75309523D01*
X35299537Y-75309523D02*
X35394775Y-75357142D01*
X35394775Y-75357142D02*
X35537632Y-75357142D01*
X35537632Y-75357142D02*
X35632870Y-75309523D01*
X35632870Y-75309523D02*
X35680489Y-75261904D01*
X35680489Y-75261904D02*
X35728108Y-75166666D01*
X35728108Y-75166666D02*
X35728108Y-74785714D01*
X36204299Y-76309523D02*
X36204299Y-75738095D01*
X36204299Y-76023809D02*
X35204299Y-76023809D01*
X35204299Y-76023809D02*
X35347156Y-75928571D01*
X35347156Y-75928571D02*
X35442394Y-75833333D01*
X35442394Y-75833333D02*
X35490013Y-75738095D01*
X35204299Y-76928571D02*
X35204299Y-77023809D01*
X35204299Y-77023809D02*
X35251918Y-77119047D01*
X35251918Y-77119047D02*
X35299537Y-77166666D01*
X35299537Y-77166666D02*
X35394775Y-77214285D01*
X35394775Y-77214285D02*
X35585251Y-77261904D01*
X35585251Y-77261904D02*
X35823346Y-77261904D01*
X35823346Y-77261904D02*
X36013822Y-77214285D01*
X36013822Y-77214285D02*
X36109060Y-77166666D01*
X36109060Y-77166666D02*
X36156680Y-77119047D01*
X36156680Y-77119047D02*
X36204299Y-77023809D01*
X36204299Y-77023809D02*
X36204299Y-76928571D01*
X36204299Y-76928571D02*
X36156680Y-76833333D01*
X36156680Y-76833333D02*
X36109060Y-76785714D01*
X36109060Y-76785714D02*
X36013822Y-76738095D01*
X36013822Y-76738095D02*
X35823346Y-76690476D01*
X35823346Y-76690476D02*
X35585251Y-76690476D01*
X35585251Y-76690476D02*
X35394775Y-76738095D01*
X35394775Y-76738095D02*
X35299537Y-76785714D01*
X35299537Y-76785714D02*
X35251918Y-76833333D01*
X35251918Y-76833333D02*
X35204299Y-76928571D01*
X21454299Y-79488095D02*
X22263822Y-79488095D01*
X22263822Y-79488095D02*
X22359060Y-79535714D01*
X22359060Y-79535714D02*
X22406680Y-79583333D01*
X22406680Y-79583333D02*
X22454299Y-79678571D01*
X22454299Y-79678571D02*
X22454299Y-79869047D01*
X22454299Y-79869047D02*
X22406680Y-79964285D01*
X22406680Y-79964285D02*
X22359060Y-80011904D01*
X22359060Y-80011904D02*
X22263822Y-80059523D01*
X22263822Y-80059523D02*
X21454299Y-80059523D01*
X21454299Y-81011904D02*
X21454299Y-80535714D01*
X21454299Y-80535714D02*
X21930489Y-80488095D01*
X21930489Y-80488095D02*
X21882870Y-80535714D01*
X21882870Y-80535714D02*
X21835251Y-80630952D01*
X21835251Y-80630952D02*
X21835251Y-80869047D01*
X21835251Y-80869047D02*
X21882870Y-80964285D01*
X21882870Y-80964285D02*
X21930489Y-81011904D01*
X21930489Y-81011904D02*
X22025727Y-81059523D01*
X22025727Y-81059523D02*
X22263822Y-81059523D01*
X22263822Y-81059523D02*
X22359060Y-81011904D01*
X22359060Y-81011904D02*
X22406680Y-80964285D01*
X22406680Y-80964285D02*
X22454299Y-80869047D01*
X22454299Y-80869047D02*
X22454299Y-80630952D01*
X22454299Y-80630952D02*
X22406680Y-80535714D01*
X22406680Y-80535714D02*
X22359060Y-80488095D01*
X24869299Y-78367167D02*
X24869299Y-77795739D01*
X24869299Y-78081453D02*
X23869299Y-78081453D01*
X23869299Y-78081453D02*
X24012156Y-77986215D01*
X24012156Y-77986215D02*
X24107394Y-77890977D01*
X24107394Y-77890977D02*
X24155013Y-77795739D01*
X85454299Y-106488095D02*
X86263822Y-106488095D01*
X86263822Y-106488095D02*
X86359060Y-106535714D01*
X86359060Y-106535714D02*
X86406680Y-106583333D01*
X86406680Y-106583333D02*
X86454299Y-106678571D01*
X86454299Y-106678571D02*
X86454299Y-106869047D01*
X86454299Y-106869047D02*
X86406680Y-106964285D01*
X86406680Y-106964285D02*
X86359060Y-107011904D01*
X86359060Y-107011904D02*
X86263822Y-107059523D01*
X86263822Y-107059523D02*
X85454299Y-107059523D01*
X85454299Y-107440476D02*
X85454299Y-108059523D01*
X85454299Y-108059523D02*
X85835251Y-107726190D01*
X85835251Y-107726190D02*
X85835251Y-107869047D01*
X85835251Y-107869047D02*
X85882870Y-107964285D01*
X85882870Y-107964285D02*
X85930489Y-108011904D01*
X85930489Y-108011904D02*
X86025727Y-108059523D01*
X86025727Y-108059523D02*
X86263822Y-108059523D01*
X86263822Y-108059523D02*
X86359060Y-108011904D01*
X86359060Y-108011904D02*
X86406680Y-107964285D01*
X86406680Y-107964285D02*
X86454299Y-107869047D01*
X86454299Y-107869047D02*
X86454299Y-107583333D01*
X86454299Y-107583333D02*
X86406680Y-107488095D01*
X86406680Y-107488095D02*
X86359060Y-107440476D01*
X88869299Y-105617167D02*
X88869299Y-105045739D01*
X88869299Y-105331453D02*
X87869299Y-105331453D01*
X87869299Y-105331453D02*
X88012156Y-105236215D01*
X88012156Y-105236215D02*
X88107394Y-105140977D01*
X88107394Y-105140977D02*
X88155013Y-105045739D01*
X82454299Y-79333333D02*
X81978108Y-79000000D01*
X82454299Y-78761905D02*
X81454299Y-78761905D01*
X81454299Y-78761905D02*
X81454299Y-79142857D01*
X81454299Y-79142857D02*
X81501918Y-79238095D01*
X81501918Y-79238095D02*
X81549537Y-79285714D01*
X81549537Y-79285714D02*
X81644775Y-79333333D01*
X81644775Y-79333333D02*
X81787632Y-79333333D01*
X81787632Y-79333333D02*
X81882870Y-79285714D01*
X81882870Y-79285714D02*
X81930489Y-79238095D01*
X81930489Y-79238095D02*
X81978108Y-79142857D01*
X81978108Y-79142857D02*
X81978108Y-78761905D01*
X81787632Y-80190476D02*
X82454299Y-80190476D01*
X81406680Y-79952381D02*
X82120965Y-79714286D01*
X82120965Y-79714286D02*
X82120965Y-80333333D01*
X75454299Y-106488095D02*
X76263822Y-106488095D01*
X76263822Y-106488095D02*
X76359060Y-106535714D01*
X76359060Y-106535714D02*
X76406680Y-106583333D01*
X76406680Y-106583333D02*
X76454299Y-106678571D01*
X76454299Y-106678571D02*
X76454299Y-106869047D01*
X76454299Y-106869047D02*
X76406680Y-106964285D01*
X76406680Y-106964285D02*
X76359060Y-107011904D01*
X76359060Y-107011904D02*
X76263822Y-107059523D01*
X76263822Y-107059523D02*
X75454299Y-107059523D01*
X75787632Y-107964285D02*
X76454299Y-107964285D01*
X75406680Y-107726190D02*
X76120965Y-107488095D01*
X76120965Y-107488095D02*
X76120965Y-108107142D01*
X78919299Y-105367167D02*
X78919299Y-104795739D01*
X78919299Y-105081453D02*
X77919299Y-105081453D01*
X77919299Y-105081453D02*
X78062156Y-104986215D01*
X78062156Y-104986215D02*
X78157394Y-104890977D01*
X78157394Y-104890977D02*
X78205013Y-104795739D01*
X82454299Y-106333333D02*
X81978108Y-106000000D01*
X82454299Y-105761905D02*
X81454299Y-105761905D01*
X81454299Y-105761905D02*
X81454299Y-106142857D01*
X81454299Y-106142857D02*
X81501918Y-106238095D01*
X81501918Y-106238095D02*
X81549537Y-106285714D01*
X81549537Y-106285714D02*
X81644775Y-106333333D01*
X81644775Y-106333333D02*
X81787632Y-106333333D01*
X81787632Y-106333333D02*
X81882870Y-106285714D01*
X81882870Y-106285714D02*
X81930489Y-106238095D01*
X81930489Y-106238095D02*
X81978108Y-106142857D01*
X81978108Y-106142857D02*
X81978108Y-105761905D01*
X81787632Y-107190476D02*
X82454299Y-107190476D01*
X81406680Y-106952381D02*
X82120965Y-106714286D01*
X82120965Y-106714286D02*
X82120965Y-107333333D01*
X85454299Y-79488095D02*
X86263822Y-79488095D01*
X86263822Y-79488095D02*
X86359060Y-79535714D01*
X86359060Y-79535714D02*
X86406680Y-79583333D01*
X86406680Y-79583333D02*
X86454299Y-79678571D01*
X86454299Y-79678571D02*
X86454299Y-79869047D01*
X86454299Y-79869047D02*
X86406680Y-79964285D01*
X86406680Y-79964285D02*
X86359060Y-80011904D01*
X86359060Y-80011904D02*
X86263822Y-80059523D01*
X86263822Y-80059523D02*
X85454299Y-80059523D01*
X85454299Y-80440476D02*
X85454299Y-81059523D01*
X85454299Y-81059523D02*
X85835251Y-80726190D01*
X85835251Y-80726190D02*
X85835251Y-80869047D01*
X85835251Y-80869047D02*
X85882870Y-80964285D01*
X85882870Y-80964285D02*
X85930489Y-81011904D01*
X85930489Y-81011904D02*
X86025727Y-81059523D01*
X86025727Y-81059523D02*
X86263822Y-81059523D01*
X86263822Y-81059523D02*
X86359060Y-81011904D01*
X86359060Y-81011904D02*
X86406680Y-80964285D01*
X86406680Y-80964285D02*
X86454299Y-80869047D01*
X86454299Y-80869047D02*
X86454299Y-80583333D01*
X86454299Y-80583333D02*
X86406680Y-80488095D01*
X86406680Y-80488095D02*
X86359060Y-80440476D01*
X88869299Y-78617167D02*
X88869299Y-78045739D01*
X88869299Y-78331453D02*
X87869299Y-78331453D01*
X87869299Y-78331453D02*
X88012156Y-78236215D01*
X88012156Y-78236215D02*
X88107394Y-78140977D01*
X88107394Y-78140977D02*
X88155013Y-78045739D01*
X18454299Y-79333333D02*
X17978108Y-79000000D01*
X18454299Y-78761905D02*
X17454299Y-78761905D01*
X17454299Y-78761905D02*
X17454299Y-79142857D01*
X17454299Y-79142857D02*
X17501918Y-79238095D01*
X17501918Y-79238095D02*
X17549537Y-79285714D01*
X17549537Y-79285714D02*
X17644775Y-79333333D01*
X17644775Y-79333333D02*
X17787632Y-79333333D01*
X17787632Y-79333333D02*
X17882870Y-79285714D01*
X17882870Y-79285714D02*
X17930489Y-79238095D01*
X17930489Y-79238095D02*
X17978108Y-79142857D01*
X17978108Y-79142857D02*
X17978108Y-78761905D01*
X18454299Y-79809524D02*
X18454299Y-80000000D01*
X18454299Y-80000000D02*
X18406680Y-80095238D01*
X18406680Y-80095238D02*
X18359060Y-80142857D01*
X18359060Y-80142857D02*
X18216203Y-80238095D01*
X18216203Y-80238095D02*
X18025727Y-80285714D01*
X18025727Y-80285714D02*
X17644775Y-80285714D01*
X17644775Y-80285714D02*
X17549537Y-80238095D01*
X17549537Y-80238095D02*
X17501918Y-80190476D01*
X17501918Y-80190476D02*
X17454299Y-80095238D01*
X17454299Y-80095238D02*
X17454299Y-79904762D01*
X17454299Y-79904762D02*
X17501918Y-79809524D01*
X17501918Y-79809524D02*
X17549537Y-79761905D01*
X17549537Y-79761905D02*
X17644775Y-79714286D01*
X17644775Y-79714286D02*
X17882870Y-79714286D01*
X17882870Y-79714286D02*
X17978108Y-79761905D01*
X17978108Y-79761905D02*
X18025727Y-79809524D01*
X18025727Y-79809524D02*
X18073346Y-79904762D01*
X18073346Y-79904762D02*
X18073346Y-80095238D01*
X18073346Y-80095238D02*
X18025727Y-80190476D01*
X18025727Y-80190476D02*
X17978108Y-80238095D01*
X17978108Y-80238095D02*
X17882870Y-80285714D01*
X26454299Y-102607142D02*
X25978108Y-102273809D01*
X26454299Y-102035714D02*
X25454299Y-102035714D01*
X25454299Y-102035714D02*
X25454299Y-102416666D01*
X25454299Y-102416666D02*
X25501918Y-102511904D01*
X25501918Y-102511904D02*
X25549537Y-102559523D01*
X25549537Y-102559523D02*
X25644775Y-102607142D01*
X25644775Y-102607142D02*
X25787632Y-102607142D01*
X25787632Y-102607142D02*
X25882870Y-102559523D01*
X25882870Y-102559523D02*
X25930489Y-102511904D01*
X25930489Y-102511904D02*
X25978108Y-102416666D01*
X25978108Y-102416666D02*
X25978108Y-102035714D01*
X26454299Y-103559523D02*
X26454299Y-102988095D01*
X26454299Y-103273809D02*
X25454299Y-103273809D01*
X25454299Y-103273809D02*
X25597156Y-103178571D01*
X25597156Y-103178571D02*
X25692394Y-103083333D01*
X25692394Y-103083333D02*
X25740013Y-102988095D01*
X26454299Y-104511904D02*
X26454299Y-103940476D01*
X26454299Y-104226190D02*
X25454299Y-104226190D01*
X25454299Y-104226190D02*
X25597156Y-104130952D01*
X25597156Y-104130952D02*
X25692394Y-104035714D01*
X25692394Y-104035714D02*
X25740013Y-103940476D01*
X41454299Y-106488095D02*
X42263822Y-106488095D01*
X42263822Y-106488095D02*
X42359060Y-106535714D01*
X42359060Y-106535714D02*
X42406680Y-106583333D01*
X42406680Y-106583333D02*
X42454299Y-106678571D01*
X42454299Y-106678571D02*
X42454299Y-106869047D01*
X42454299Y-106869047D02*
X42406680Y-106964285D01*
X42406680Y-106964285D02*
X42359060Y-107011904D01*
X42359060Y-107011904D02*
X42263822Y-107059523D01*
X42263822Y-107059523D02*
X41454299Y-107059523D01*
X41454299Y-107440476D02*
X41454299Y-108059523D01*
X41454299Y-108059523D02*
X41835251Y-107726190D01*
X41835251Y-107726190D02*
X41835251Y-107869047D01*
X41835251Y-107869047D02*
X41882870Y-107964285D01*
X41882870Y-107964285D02*
X41930489Y-108011904D01*
X41930489Y-108011904D02*
X42025727Y-108059523D01*
X42025727Y-108059523D02*
X42263822Y-108059523D01*
X42263822Y-108059523D02*
X42359060Y-108011904D01*
X42359060Y-108011904D02*
X42406680Y-107964285D01*
X42406680Y-107964285D02*
X42454299Y-107869047D01*
X42454299Y-107869047D02*
X42454299Y-107583333D01*
X42454299Y-107583333D02*
X42406680Y-107488095D01*
X42406680Y-107488095D02*
X42359060Y-107440476D01*
X44869299Y-105617167D02*
X44869299Y-105045739D01*
X44869299Y-105331453D02*
X43869299Y-105331453D01*
X43869299Y-105331453D02*
X44012156Y-105236215D01*
X44012156Y-105236215D02*
X44107394Y-105140977D01*
X44107394Y-105140977D02*
X44155013Y-105045739D01*
X21954299Y-35315833D02*
X21478108Y-34982500D01*
X21954299Y-34744405D02*
X20954299Y-34744405D01*
X20954299Y-34744405D02*
X20954299Y-35125357D01*
X20954299Y-35125357D02*
X21001918Y-35220595D01*
X21001918Y-35220595D02*
X21049537Y-35268214D01*
X21049537Y-35268214D02*
X21144775Y-35315833D01*
X21144775Y-35315833D02*
X21287632Y-35315833D01*
X21287632Y-35315833D02*
X21382870Y-35268214D01*
X21382870Y-35268214D02*
X21430489Y-35220595D01*
X21430489Y-35220595D02*
X21478108Y-35125357D01*
X21478108Y-35125357D02*
X21478108Y-34744405D01*
X20954299Y-35649167D02*
X20954299Y-36315833D01*
X20954299Y-36315833D02*
X21954299Y-35887262D01*
X36204299Y-102357142D02*
X35728108Y-102023809D01*
X36204299Y-101785714D02*
X35204299Y-101785714D01*
X35204299Y-101785714D02*
X35204299Y-102166666D01*
X35204299Y-102166666D02*
X35251918Y-102261904D01*
X35251918Y-102261904D02*
X35299537Y-102309523D01*
X35299537Y-102309523D02*
X35394775Y-102357142D01*
X35394775Y-102357142D02*
X35537632Y-102357142D01*
X35537632Y-102357142D02*
X35632870Y-102309523D01*
X35632870Y-102309523D02*
X35680489Y-102261904D01*
X35680489Y-102261904D02*
X35728108Y-102166666D01*
X35728108Y-102166666D02*
X35728108Y-101785714D01*
X36204299Y-103309523D02*
X36204299Y-102738095D01*
X36204299Y-103023809D02*
X35204299Y-103023809D01*
X35204299Y-103023809D02*
X35347156Y-102928571D01*
X35347156Y-102928571D02*
X35442394Y-102833333D01*
X35442394Y-102833333D02*
X35490013Y-102738095D01*
X35204299Y-103928571D02*
X35204299Y-104023809D01*
X35204299Y-104023809D02*
X35251918Y-104119047D01*
X35251918Y-104119047D02*
X35299537Y-104166666D01*
X35299537Y-104166666D02*
X35394775Y-104214285D01*
X35394775Y-104214285D02*
X35585251Y-104261904D01*
X35585251Y-104261904D02*
X35823346Y-104261904D01*
X35823346Y-104261904D02*
X36013822Y-104214285D01*
X36013822Y-104214285D02*
X36109060Y-104166666D01*
X36109060Y-104166666D02*
X36156680Y-104119047D01*
X36156680Y-104119047D02*
X36204299Y-104023809D01*
X36204299Y-104023809D02*
X36204299Y-103928571D01*
X36204299Y-103928571D02*
X36156680Y-103833333D01*
X36156680Y-103833333D02*
X36109060Y-103785714D01*
X36109060Y-103785714D02*
X36013822Y-103738095D01*
X36013822Y-103738095D02*
X35823346Y-103690476D01*
X35823346Y-103690476D02*
X35585251Y-103690476D01*
X35585251Y-103690476D02*
X35394775Y-103738095D01*
X35394775Y-103738095D02*
X35299537Y-103785714D01*
X35299537Y-103785714D02*
X35251918Y-103833333D01*
X35251918Y-103833333D02*
X35204299Y-103928571D01*
X18454299Y-106333333D02*
X17978108Y-106000000D01*
X18454299Y-105761905D02*
X17454299Y-105761905D01*
X17454299Y-105761905D02*
X17454299Y-106142857D01*
X17454299Y-106142857D02*
X17501918Y-106238095D01*
X17501918Y-106238095D02*
X17549537Y-106285714D01*
X17549537Y-106285714D02*
X17644775Y-106333333D01*
X17644775Y-106333333D02*
X17787632Y-106333333D01*
X17787632Y-106333333D02*
X17882870Y-106285714D01*
X17882870Y-106285714D02*
X17930489Y-106238095D01*
X17930489Y-106238095D02*
X17978108Y-106142857D01*
X17978108Y-106142857D02*
X17978108Y-105761905D01*
X18454299Y-106809524D02*
X18454299Y-107000000D01*
X18454299Y-107000000D02*
X18406680Y-107095238D01*
X18406680Y-107095238D02*
X18359060Y-107142857D01*
X18359060Y-107142857D02*
X18216203Y-107238095D01*
X18216203Y-107238095D02*
X18025727Y-107285714D01*
X18025727Y-107285714D02*
X17644775Y-107285714D01*
X17644775Y-107285714D02*
X17549537Y-107238095D01*
X17549537Y-107238095D02*
X17501918Y-107190476D01*
X17501918Y-107190476D02*
X17454299Y-107095238D01*
X17454299Y-107095238D02*
X17454299Y-106904762D01*
X17454299Y-106904762D02*
X17501918Y-106809524D01*
X17501918Y-106809524D02*
X17549537Y-106761905D01*
X17549537Y-106761905D02*
X17644775Y-106714286D01*
X17644775Y-106714286D02*
X17882870Y-106714286D01*
X17882870Y-106714286D02*
X17978108Y-106761905D01*
X17978108Y-106761905D02*
X18025727Y-106809524D01*
X18025727Y-106809524D02*
X18073346Y-106904762D01*
X18073346Y-106904762D02*
X18073346Y-107095238D01*
X18073346Y-107095238D02*
X18025727Y-107190476D01*
X18025727Y-107190476D02*
X17978108Y-107238095D01*
X17978108Y-107238095D02*
X17882870Y-107285714D01*
X31166666Y-53859060D02*
X31214285Y-53906680D01*
X31214285Y-53906680D02*
X31357142Y-53954299D01*
X31357142Y-53954299D02*
X31452380Y-53954299D01*
X31452380Y-53954299D02*
X31595237Y-53906680D01*
X31595237Y-53906680D02*
X31690475Y-53811441D01*
X31690475Y-53811441D02*
X31738094Y-53716203D01*
X31738094Y-53716203D02*
X31785713Y-53525727D01*
X31785713Y-53525727D02*
X31785713Y-53382870D01*
X31785713Y-53382870D02*
X31738094Y-53192394D01*
X31738094Y-53192394D02*
X31690475Y-53097156D01*
X31690475Y-53097156D02*
X31595237Y-53001918D01*
X31595237Y-53001918D02*
X31452380Y-52954299D01*
X31452380Y-52954299D02*
X31357142Y-52954299D01*
X31357142Y-52954299D02*
X31214285Y-53001918D01*
X31214285Y-53001918D02*
X31166666Y-53049537D01*
X30214285Y-53954299D02*
X30785713Y-53954299D01*
X30499999Y-53954299D02*
X30499999Y-52954299D01*
X30499999Y-52954299D02*
X30595237Y-53097156D01*
X30595237Y-53097156D02*
X30690475Y-53192394D01*
X30690475Y-53192394D02*
X30785713Y-53240013D01*
X92454299Y-79333333D02*
X91978108Y-79000000D01*
X92454299Y-78761905D02*
X91454299Y-78761905D01*
X91454299Y-78761905D02*
X91454299Y-79142857D01*
X91454299Y-79142857D02*
X91501918Y-79238095D01*
X91501918Y-79238095D02*
X91549537Y-79285714D01*
X91549537Y-79285714D02*
X91644775Y-79333333D01*
X91644775Y-79333333D02*
X91787632Y-79333333D01*
X91787632Y-79333333D02*
X91882870Y-79285714D01*
X91882870Y-79285714D02*
X91930489Y-79238095D01*
X91930489Y-79238095D02*
X91978108Y-79142857D01*
X91978108Y-79142857D02*
X91978108Y-78761905D01*
X91549537Y-79714286D02*
X91501918Y-79761905D01*
X91501918Y-79761905D02*
X91454299Y-79857143D01*
X91454299Y-79857143D02*
X91454299Y-80095238D01*
X91454299Y-80095238D02*
X91501918Y-80190476D01*
X91501918Y-80190476D02*
X91549537Y-80238095D01*
X91549537Y-80238095D02*
X91644775Y-80285714D01*
X91644775Y-80285714D02*
X91740013Y-80285714D01*
X91740013Y-80285714D02*
X91882870Y-80238095D01*
X91882870Y-80238095D02*
X92454299Y-79666667D01*
X92454299Y-79666667D02*
X92454299Y-80285714D01*
X39854299Y-36730833D02*
X39378108Y-36397500D01*
X39854299Y-36159405D02*
X38854299Y-36159405D01*
X38854299Y-36159405D02*
X38854299Y-36540357D01*
X38854299Y-36540357D02*
X38901918Y-36635595D01*
X38901918Y-36635595D02*
X38949537Y-36683214D01*
X38949537Y-36683214D02*
X39044775Y-36730833D01*
X39044775Y-36730833D02*
X39187632Y-36730833D01*
X39187632Y-36730833D02*
X39282870Y-36683214D01*
X39282870Y-36683214D02*
X39330489Y-36635595D01*
X39330489Y-36635595D02*
X39378108Y-36540357D01*
X39378108Y-36540357D02*
X39378108Y-36159405D01*
X39854299Y-37683214D02*
X39854299Y-37111786D01*
X39854299Y-37397500D02*
X38854299Y-37397500D01*
X38854299Y-37397500D02*
X38997156Y-37302262D01*
X38997156Y-37302262D02*
X39092394Y-37207024D01*
X39092394Y-37207024D02*
X39140013Y-37111786D01*
X80204299Y-102357142D02*
X79728108Y-102023809D01*
X80204299Y-101785714D02*
X79204299Y-101785714D01*
X79204299Y-101785714D02*
X79204299Y-102166666D01*
X79204299Y-102166666D02*
X79251918Y-102261904D01*
X79251918Y-102261904D02*
X79299537Y-102309523D01*
X79299537Y-102309523D02*
X79394775Y-102357142D01*
X79394775Y-102357142D02*
X79537632Y-102357142D01*
X79537632Y-102357142D02*
X79632870Y-102309523D01*
X79632870Y-102309523D02*
X79680489Y-102261904D01*
X79680489Y-102261904D02*
X79728108Y-102166666D01*
X79728108Y-102166666D02*
X79728108Y-101785714D01*
X80204299Y-103309523D02*
X80204299Y-102738095D01*
X80204299Y-103023809D02*
X79204299Y-103023809D01*
X79204299Y-103023809D02*
X79347156Y-102928571D01*
X79347156Y-102928571D02*
X79442394Y-102833333D01*
X79442394Y-102833333D02*
X79490013Y-102738095D01*
X79204299Y-103928571D02*
X79204299Y-104023809D01*
X79204299Y-104023809D02*
X79251918Y-104119047D01*
X79251918Y-104119047D02*
X79299537Y-104166666D01*
X79299537Y-104166666D02*
X79394775Y-104214285D01*
X79394775Y-104214285D02*
X79585251Y-104261904D01*
X79585251Y-104261904D02*
X79823346Y-104261904D01*
X79823346Y-104261904D02*
X80013822Y-104214285D01*
X80013822Y-104214285D02*
X80109060Y-104166666D01*
X80109060Y-104166666D02*
X80156680Y-104119047D01*
X80156680Y-104119047D02*
X80204299Y-104023809D01*
X80204299Y-104023809D02*
X80204299Y-103928571D01*
X80204299Y-103928571D02*
X80156680Y-103833333D01*
X80156680Y-103833333D02*
X80109060Y-103785714D01*
X80109060Y-103785714D02*
X80013822Y-103738095D01*
X80013822Y-103738095D02*
X79823346Y-103690476D01*
X79823346Y-103690476D02*
X79585251Y-103690476D01*
X79585251Y-103690476D02*
X79394775Y-103738095D01*
X79394775Y-103738095D02*
X79299537Y-103785714D01*
X79299537Y-103785714D02*
X79251918Y-103833333D01*
X79251918Y-103833333D02*
X79204299Y-103928571D01*
X31454299Y-79488095D02*
X32263822Y-79488095D01*
X32263822Y-79488095D02*
X32359060Y-79535714D01*
X32359060Y-79535714D02*
X32406680Y-79583333D01*
X32406680Y-79583333D02*
X32454299Y-79678571D01*
X32454299Y-79678571D02*
X32454299Y-79869047D01*
X32454299Y-79869047D02*
X32406680Y-79964285D01*
X32406680Y-79964285D02*
X32359060Y-80011904D01*
X32359060Y-80011904D02*
X32263822Y-80059523D01*
X32263822Y-80059523D02*
X31454299Y-80059523D01*
X31787632Y-80964285D02*
X32454299Y-80964285D01*
X31406680Y-80726190D02*
X32120965Y-80488095D01*
X32120965Y-80488095D02*
X32120965Y-81107142D01*
X34919299Y-78367167D02*
X34919299Y-77795739D01*
X34919299Y-78081453D02*
X33919299Y-78081453D01*
X33919299Y-78081453D02*
X34062156Y-77986215D01*
X34062156Y-77986215D02*
X34157394Y-77890977D01*
X34157394Y-77890977D02*
X34205013Y-77795739D01*
X39866666Y-59754299D02*
X40199999Y-59278108D01*
X40438094Y-59754299D02*
X40438094Y-58754299D01*
X40438094Y-58754299D02*
X40057142Y-58754299D01*
X40057142Y-58754299D02*
X39961904Y-58801918D01*
X39961904Y-58801918D02*
X39914285Y-58849537D01*
X39914285Y-58849537D02*
X39866666Y-58944775D01*
X39866666Y-58944775D02*
X39866666Y-59087632D01*
X39866666Y-59087632D02*
X39914285Y-59182870D01*
X39914285Y-59182870D02*
X39961904Y-59230489D01*
X39961904Y-59230489D02*
X40057142Y-59278108D01*
X40057142Y-59278108D02*
X40438094Y-59278108D01*
X39009523Y-59087632D02*
X39009523Y-59754299D01*
X39247618Y-58706680D02*
X39485713Y-59420965D01*
X39485713Y-59420965D02*
X38866666Y-59420965D01*
X20854299Y-40973333D02*
X20378108Y-40640000D01*
X20854299Y-40401905D02*
X19854299Y-40401905D01*
X19854299Y-40401905D02*
X19854299Y-40782857D01*
X19854299Y-40782857D02*
X19901918Y-40878095D01*
X19901918Y-40878095D02*
X19949537Y-40925714D01*
X19949537Y-40925714D02*
X20044775Y-40973333D01*
X20044775Y-40973333D02*
X20187632Y-40973333D01*
X20187632Y-40973333D02*
X20282870Y-40925714D01*
X20282870Y-40925714D02*
X20330489Y-40878095D01*
X20330489Y-40878095D02*
X20378108Y-40782857D01*
X20378108Y-40782857D02*
X20378108Y-40401905D01*
X20282870Y-41544762D02*
X20235251Y-41449524D01*
X20235251Y-41449524D02*
X20187632Y-41401905D01*
X20187632Y-41401905D02*
X20092394Y-41354286D01*
X20092394Y-41354286D02*
X20044775Y-41354286D01*
X20044775Y-41354286D02*
X19949537Y-41401905D01*
X19949537Y-41401905D02*
X19901918Y-41449524D01*
X19901918Y-41449524D02*
X19854299Y-41544762D01*
X19854299Y-41544762D02*
X19854299Y-41735238D01*
X19854299Y-41735238D02*
X19901918Y-41830476D01*
X19901918Y-41830476D02*
X19949537Y-41878095D01*
X19949537Y-41878095D02*
X20044775Y-41925714D01*
X20044775Y-41925714D02*
X20092394Y-41925714D01*
X20092394Y-41925714D02*
X20187632Y-41878095D01*
X20187632Y-41878095D02*
X20235251Y-41830476D01*
X20235251Y-41830476D02*
X20282870Y-41735238D01*
X20282870Y-41735238D02*
X20282870Y-41544762D01*
X20282870Y-41544762D02*
X20330489Y-41449524D01*
X20330489Y-41449524D02*
X20378108Y-41401905D01*
X20378108Y-41401905D02*
X20473346Y-41354286D01*
X20473346Y-41354286D02*
X20663822Y-41354286D01*
X20663822Y-41354286D02*
X20759060Y-41401905D01*
X20759060Y-41401905D02*
X20806680Y-41449524D01*
X20806680Y-41449524D02*
X20854299Y-41544762D01*
X20854299Y-41544762D02*
X20854299Y-41735238D01*
X20854299Y-41735238D02*
X20806680Y-41830476D01*
X20806680Y-41830476D02*
X20759060Y-41878095D01*
X20759060Y-41878095D02*
X20663822Y-41925714D01*
X20663822Y-41925714D02*
X20473346Y-41925714D01*
X20473346Y-41925714D02*
X20378108Y-41878095D01*
X20378108Y-41878095D02*
X20330489Y-41830476D01*
X20330489Y-41830476D02*
X20282870Y-41735238D01*
X26454299Y-75607142D02*
X25978108Y-75273809D01*
X26454299Y-75035714D02*
X25454299Y-75035714D01*
X25454299Y-75035714D02*
X25454299Y-75416666D01*
X25454299Y-75416666D02*
X25501918Y-75511904D01*
X25501918Y-75511904D02*
X25549537Y-75559523D01*
X25549537Y-75559523D02*
X25644775Y-75607142D01*
X25644775Y-75607142D02*
X25787632Y-75607142D01*
X25787632Y-75607142D02*
X25882870Y-75559523D01*
X25882870Y-75559523D02*
X25930489Y-75511904D01*
X25930489Y-75511904D02*
X25978108Y-75416666D01*
X25978108Y-75416666D02*
X25978108Y-75035714D01*
X26454299Y-76559523D02*
X26454299Y-75988095D01*
X26454299Y-76273809D02*
X25454299Y-76273809D01*
X25454299Y-76273809D02*
X25597156Y-76178571D01*
X25597156Y-76178571D02*
X25692394Y-76083333D01*
X25692394Y-76083333D02*
X25740013Y-75988095D01*
X26454299Y-77511904D02*
X26454299Y-76940476D01*
X26454299Y-77226190D02*
X25454299Y-77226190D01*
X25454299Y-77226190D02*
X25597156Y-77130952D01*
X25597156Y-77130952D02*
X25692394Y-77035714D01*
X25692394Y-77035714D02*
X25740013Y-76940476D01*
X70454299Y-75607142D02*
X69978108Y-75273809D01*
X70454299Y-75035714D02*
X69454299Y-75035714D01*
X69454299Y-75035714D02*
X69454299Y-75416666D01*
X69454299Y-75416666D02*
X69501918Y-75511904D01*
X69501918Y-75511904D02*
X69549537Y-75559523D01*
X69549537Y-75559523D02*
X69644775Y-75607142D01*
X69644775Y-75607142D02*
X69787632Y-75607142D01*
X69787632Y-75607142D02*
X69882870Y-75559523D01*
X69882870Y-75559523D02*
X69930489Y-75511904D01*
X69930489Y-75511904D02*
X69978108Y-75416666D01*
X69978108Y-75416666D02*
X69978108Y-75035714D01*
X70454299Y-76559523D02*
X70454299Y-75988095D01*
X70454299Y-76273809D02*
X69454299Y-76273809D01*
X69454299Y-76273809D02*
X69597156Y-76178571D01*
X69597156Y-76178571D02*
X69692394Y-76083333D01*
X69692394Y-76083333D02*
X69740013Y-75988095D01*
X70454299Y-77511904D02*
X70454299Y-76940476D01*
X70454299Y-77226190D02*
X69454299Y-77226190D01*
X69454299Y-77226190D02*
X69597156Y-77130952D01*
X69597156Y-77130952D02*
X69692394Y-77035714D01*
X69692394Y-77035714D02*
X69740013Y-76940476D01*
X90204299Y-76430833D02*
X89728108Y-76097500D01*
X90204299Y-75859405D02*
X89204299Y-75859405D01*
X89204299Y-75859405D02*
X89204299Y-76240357D01*
X89204299Y-76240357D02*
X89251918Y-76335595D01*
X89251918Y-76335595D02*
X89299537Y-76383214D01*
X89299537Y-76383214D02*
X89394775Y-76430833D01*
X89394775Y-76430833D02*
X89537632Y-76430833D01*
X89537632Y-76430833D02*
X89632870Y-76383214D01*
X89632870Y-76383214D02*
X89680489Y-76335595D01*
X89680489Y-76335595D02*
X89728108Y-76240357D01*
X89728108Y-76240357D02*
X89728108Y-75859405D01*
X89204299Y-77335595D02*
X89204299Y-76859405D01*
X89204299Y-76859405D02*
X89680489Y-76811786D01*
X89680489Y-76811786D02*
X89632870Y-76859405D01*
X89632870Y-76859405D02*
X89585251Y-76954643D01*
X89585251Y-76954643D02*
X89585251Y-77192738D01*
X89585251Y-77192738D02*
X89632870Y-77287976D01*
X89632870Y-77287976D02*
X89680489Y-77335595D01*
X89680489Y-77335595D02*
X89775727Y-77383214D01*
X89775727Y-77383214D02*
X90013822Y-77383214D01*
X90013822Y-77383214D02*
X90109060Y-77335595D01*
X90109060Y-77335595D02*
X90156680Y-77287976D01*
X90156680Y-77287976D02*
X90204299Y-77192738D01*
X90204299Y-77192738D02*
X90204299Y-76954643D01*
X90204299Y-76954643D02*
X90156680Y-76859405D01*
X90156680Y-76859405D02*
X90109060Y-76811786D01*
X46204299Y-103430833D02*
X45728108Y-103097500D01*
X46204299Y-102859405D02*
X45204299Y-102859405D01*
X45204299Y-102859405D02*
X45204299Y-103240357D01*
X45204299Y-103240357D02*
X45251918Y-103335595D01*
X45251918Y-103335595D02*
X45299537Y-103383214D01*
X45299537Y-103383214D02*
X45394775Y-103430833D01*
X45394775Y-103430833D02*
X45537632Y-103430833D01*
X45537632Y-103430833D02*
X45632870Y-103383214D01*
X45632870Y-103383214D02*
X45680489Y-103335595D01*
X45680489Y-103335595D02*
X45728108Y-103240357D01*
X45728108Y-103240357D02*
X45728108Y-102859405D01*
X45204299Y-104335595D02*
X45204299Y-103859405D01*
X45204299Y-103859405D02*
X45680489Y-103811786D01*
X45680489Y-103811786D02*
X45632870Y-103859405D01*
X45632870Y-103859405D02*
X45585251Y-103954643D01*
X45585251Y-103954643D02*
X45585251Y-104192738D01*
X45585251Y-104192738D02*
X45632870Y-104287976D01*
X45632870Y-104287976D02*
X45680489Y-104335595D01*
X45680489Y-104335595D02*
X45775727Y-104383214D01*
X45775727Y-104383214D02*
X46013822Y-104383214D01*
X46013822Y-104383214D02*
X46109060Y-104335595D01*
X46109060Y-104335595D02*
X46156680Y-104287976D01*
X46156680Y-104287976D02*
X46204299Y-104192738D01*
X46204299Y-104192738D02*
X46204299Y-103954643D01*
X46204299Y-103954643D02*
X46156680Y-103859405D01*
X46156680Y-103859405D02*
X46109060Y-103811786D01*
X95454299Y-79488095D02*
X96263822Y-79488095D01*
X96263822Y-79488095D02*
X96359060Y-79535714D01*
X96359060Y-79535714D02*
X96406680Y-79583333D01*
X96406680Y-79583333D02*
X96454299Y-79678571D01*
X96454299Y-79678571D02*
X96454299Y-79869047D01*
X96454299Y-79869047D02*
X96406680Y-79964285D01*
X96406680Y-79964285D02*
X96359060Y-80011904D01*
X96359060Y-80011904D02*
X96263822Y-80059523D01*
X96263822Y-80059523D02*
X95454299Y-80059523D01*
X95549537Y-80488095D02*
X95501918Y-80535714D01*
X95501918Y-80535714D02*
X95454299Y-80630952D01*
X95454299Y-80630952D02*
X95454299Y-80869047D01*
X95454299Y-80869047D02*
X95501918Y-80964285D01*
X95501918Y-80964285D02*
X95549537Y-81011904D01*
X95549537Y-81011904D02*
X95644775Y-81059523D01*
X95644775Y-81059523D02*
X95740013Y-81059523D01*
X95740013Y-81059523D02*
X95882870Y-81011904D01*
X95882870Y-81011904D02*
X96454299Y-80440476D01*
X96454299Y-80440476D02*
X96454299Y-81059523D01*
X98869299Y-78367167D02*
X98869299Y-77795739D01*
X98869299Y-78081453D02*
X97869299Y-78081453D01*
X97869299Y-78081453D02*
X98012156Y-77986215D01*
X98012156Y-77986215D02*
X98107394Y-77890977D01*
X98107394Y-77890977D02*
X98155013Y-77795739D01*
X38754299Y-42330833D02*
X38278108Y-41997500D01*
X38754299Y-41759405D02*
X37754299Y-41759405D01*
X37754299Y-41759405D02*
X37754299Y-42140357D01*
X37754299Y-42140357D02*
X37801918Y-42235595D01*
X37801918Y-42235595D02*
X37849537Y-42283214D01*
X37849537Y-42283214D02*
X37944775Y-42330833D01*
X37944775Y-42330833D02*
X38087632Y-42330833D01*
X38087632Y-42330833D02*
X38182870Y-42283214D01*
X38182870Y-42283214D02*
X38230489Y-42235595D01*
X38230489Y-42235595D02*
X38278108Y-42140357D01*
X38278108Y-42140357D02*
X38278108Y-41759405D01*
X37849537Y-42711786D02*
X37801918Y-42759405D01*
X37801918Y-42759405D02*
X37754299Y-42854643D01*
X37754299Y-42854643D02*
X37754299Y-43092738D01*
X37754299Y-43092738D02*
X37801918Y-43187976D01*
X37801918Y-43187976D02*
X37849537Y-43235595D01*
X37849537Y-43235595D02*
X37944775Y-43283214D01*
X37944775Y-43283214D02*
X38040013Y-43283214D01*
X38040013Y-43283214D02*
X38182870Y-43235595D01*
X38182870Y-43235595D02*
X38754299Y-42664167D01*
X38754299Y-42664167D02*
X38754299Y-43283214D01*
X28940357Y-34354299D02*
X29273690Y-33878108D01*
X29511785Y-34354299D02*
X29511785Y-33354299D01*
X29511785Y-33354299D02*
X29130833Y-33354299D01*
X29130833Y-33354299D02*
X29035595Y-33401918D01*
X29035595Y-33401918D02*
X28987976Y-33449537D01*
X28987976Y-33449537D02*
X28940357Y-33544775D01*
X28940357Y-33544775D02*
X28940357Y-33687632D01*
X28940357Y-33687632D02*
X28987976Y-33782870D01*
X28987976Y-33782870D02*
X29035595Y-33830489D01*
X29035595Y-33830489D02*
X29130833Y-33878108D01*
X29130833Y-33878108D02*
X29511785Y-33878108D01*
X27987976Y-34354299D02*
X28559404Y-34354299D01*
X28273690Y-34354299D02*
X28273690Y-33354299D01*
X28273690Y-33354299D02*
X28368928Y-33497156D01*
X28368928Y-33497156D02*
X28464166Y-33592394D01*
X28464166Y-33592394D02*
X28559404Y-33640013D01*
X27654642Y-33354299D02*
X27035595Y-33354299D01*
X27035595Y-33354299D02*
X27368928Y-33735251D01*
X27368928Y-33735251D02*
X27226071Y-33735251D01*
X27226071Y-33735251D02*
X27130833Y-33782870D01*
X27130833Y-33782870D02*
X27083214Y-33830489D01*
X27083214Y-33830489D02*
X27035595Y-33925727D01*
X27035595Y-33925727D02*
X27035595Y-34163822D01*
X27035595Y-34163822D02*
X27083214Y-34259060D01*
X27083214Y-34259060D02*
X27130833Y-34306680D01*
X27130833Y-34306680D02*
X27226071Y-34354299D01*
X27226071Y-34354299D02*
X27511785Y-34354299D01*
X27511785Y-34354299D02*
X27607023Y-34306680D01*
X27607023Y-34306680D02*
X27654642Y-34259060D01*
X35545357Y-35454299D02*
X35878690Y-34978108D01*
X36116785Y-35454299D02*
X36116785Y-34454299D01*
X36116785Y-34454299D02*
X35735833Y-34454299D01*
X35735833Y-34454299D02*
X35640595Y-34501918D01*
X35640595Y-34501918D02*
X35592976Y-34549537D01*
X35592976Y-34549537D02*
X35545357Y-34644775D01*
X35545357Y-34644775D02*
X35545357Y-34787632D01*
X35545357Y-34787632D02*
X35592976Y-34882870D01*
X35592976Y-34882870D02*
X35640595Y-34930489D01*
X35640595Y-34930489D02*
X35735833Y-34978108D01*
X35735833Y-34978108D02*
X36116785Y-34978108D01*
X34592976Y-35454299D02*
X35164404Y-35454299D01*
X34878690Y-35454299D02*
X34878690Y-34454299D01*
X34878690Y-34454299D02*
X34973928Y-34597156D01*
X34973928Y-34597156D02*
X35069166Y-34692394D01*
X35069166Y-34692394D02*
X35164404Y-34740013D01*
X34212023Y-34549537D02*
X34164404Y-34501918D01*
X34164404Y-34501918D02*
X34069166Y-34454299D01*
X34069166Y-34454299D02*
X33831071Y-34454299D01*
X33831071Y-34454299D02*
X33735833Y-34501918D01*
X33735833Y-34501918D02*
X33688214Y-34549537D01*
X33688214Y-34549537D02*
X33640595Y-34644775D01*
X33640595Y-34644775D02*
X33640595Y-34740013D01*
X33640595Y-34740013D02*
X33688214Y-34882870D01*
X33688214Y-34882870D02*
X34259642Y-35454299D01*
X34259642Y-35454299D02*
X33640595Y-35454299D01*
X62454299Y-106333333D02*
X61978108Y-106000000D01*
X62454299Y-105761905D02*
X61454299Y-105761905D01*
X61454299Y-105761905D02*
X61454299Y-106142857D01*
X61454299Y-106142857D02*
X61501918Y-106238095D01*
X61501918Y-106238095D02*
X61549537Y-106285714D01*
X61549537Y-106285714D02*
X61644775Y-106333333D01*
X61644775Y-106333333D02*
X61787632Y-106333333D01*
X61787632Y-106333333D02*
X61882870Y-106285714D01*
X61882870Y-106285714D02*
X61930489Y-106238095D01*
X61930489Y-106238095D02*
X61978108Y-106142857D01*
X61978108Y-106142857D02*
X61978108Y-105761905D01*
X62454299Y-106809524D02*
X62454299Y-107000000D01*
X62454299Y-107000000D02*
X62406680Y-107095238D01*
X62406680Y-107095238D02*
X62359060Y-107142857D01*
X62359060Y-107142857D02*
X62216203Y-107238095D01*
X62216203Y-107238095D02*
X62025727Y-107285714D01*
X62025727Y-107285714D02*
X61644775Y-107285714D01*
X61644775Y-107285714D02*
X61549537Y-107238095D01*
X61549537Y-107238095D02*
X61501918Y-107190476D01*
X61501918Y-107190476D02*
X61454299Y-107095238D01*
X61454299Y-107095238D02*
X61454299Y-106904762D01*
X61454299Y-106904762D02*
X61501918Y-106809524D01*
X61501918Y-106809524D02*
X61549537Y-106761905D01*
X61549537Y-106761905D02*
X61644775Y-106714286D01*
X61644775Y-106714286D02*
X61882870Y-106714286D01*
X61882870Y-106714286D02*
X61978108Y-106761905D01*
X61978108Y-106761905D02*
X62025727Y-106809524D01*
X62025727Y-106809524D02*
X62073346Y-106904762D01*
X62073346Y-106904762D02*
X62073346Y-107095238D01*
X62073346Y-107095238D02*
X62025727Y-107190476D01*
X62025727Y-107190476D02*
X61978108Y-107238095D01*
X61978108Y-107238095D02*
X61882870Y-107285714D01*
X22054299Y-62230833D02*
X21578108Y-61897500D01*
X22054299Y-61659405D02*
X21054299Y-61659405D01*
X21054299Y-61659405D02*
X21054299Y-62040357D01*
X21054299Y-62040357D02*
X21101918Y-62135595D01*
X21101918Y-62135595D02*
X21149537Y-62183214D01*
X21149537Y-62183214D02*
X21244775Y-62230833D01*
X21244775Y-62230833D02*
X21387632Y-62230833D01*
X21387632Y-62230833D02*
X21482870Y-62183214D01*
X21482870Y-62183214D02*
X21530489Y-62135595D01*
X21530489Y-62135595D02*
X21578108Y-62040357D01*
X21578108Y-62040357D02*
X21578108Y-61659405D01*
X21054299Y-63087976D02*
X21054299Y-62897500D01*
X21054299Y-62897500D02*
X21101918Y-62802262D01*
X21101918Y-62802262D02*
X21149537Y-62754643D01*
X21149537Y-62754643D02*
X21292394Y-62659405D01*
X21292394Y-62659405D02*
X21482870Y-62611786D01*
X21482870Y-62611786D02*
X21863822Y-62611786D01*
X21863822Y-62611786D02*
X21959060Y-62659405D01*
X21959060Y-62659405D02*
X22006680Y-62707024D01*
X22006680Y-62707024D02*
X22054299Y-62802262D01*
X22054299Y-62802262D02*
X22054299Y-62992738D01*
X22054299Y-62992738D02*
X22006680Y-63087976D01*
X22006680Y-63087976D02*
X21959060Y-63135595D01*
X21959060Y-63135595D02*
X21863822Y-63183214D01*
X21863822Y-63183214D02*
X21625727Y-63183214D01*
X21625727Y-63183214D02*
X21530489Y-63135595D01*
X21530489Y-63135595D02*
X21482870Y-63087976D01*
X21482870Y-63087976D02*
X21435251Y-62992738D01*
X21435251Y-62992738D02*
X21435251Y-62802262D01*
X21435251Y-62802262D02*
X21482870Y-62707024D01*
X21482870Y-62707024D02*
X21530489Y-62659405D01*
X21530489Y-62659405D02*
X21625727Y-62611786D01*
X100204299Y-103333333D02*
X99728108Y-103000000D01*
X100204299Y-102761905D02*
X99204299Y-102761905D01*
X99204299Y-102761905D02*
X99204299Y-103142857D01*
X99204299Y-103142857D02*
X99251918Y-103238095D01*
X99251918Y-103238095D02*
X99299537Y-103285714D01*
X99299537Y-103285714D02*
X99394775Y-103333333D01*
X99394775Y-103333333D02*
X99537632Y-103333333D01*
X99537632Y-103333333D02*
X99632870Y-103285714D01*
X99632870Y-103285714D02*
X99680489Y-103238095D01*
X99680489Y-103238095D02*
X99728108Y-103142857D01*
X99728108Y-103142857D02*
X99728108Y-102761905D01*
X99204299Y-103666667D02*
X99204299Y-104285714D01*
X99204299Y-104285714D02*
X99585251Y-103952381D01*
X99585251Y-103952381D02*
X99585251Y-104095238D01*
X99585251Y-104095238D02*
X99632870Y-104190476D01*
X99632870Y-104190476D02*
X99680489Y-104238095D01*
X99680489Y-104238095D02*
X99775727Y-104285714D01*
X99775727Y-104285714D02*
X100013822Y-104285714D01*
X100013822Y-104285714D02*
X100109060Y-104238095D01*
X100109060Y-104238095D02*
X100156680Y-104190476D01*
X100156680Y-104190476D02*
X100204299Y-104095238D01*
X100204299Y-104095238D02*
X100204299Y-103809524D01*
X100204299Y-103809524D02*
X100156680Y-103714286D01*
X100156680Y-103714286D02*
X100109060Y-103666667D01*
X72454299Y-79333333D02*
X71978108Y-79000000D01*
X72454299Y-78761905D02*
X71454299Y-78761905D01*
X71454299Y-78761905D02*
X71454299Y-79142857D01*
X71454299Y-79142857D02*
X71501918Y-79238095D01*
X71501918Y-79238095D02*
X71549537Y-79285714D01*
X71549537Y-79285714D02*
X71644775Y-79333333D01*
X71644775Y-79333333D02*
X71787632Y-79333333D01*
X71787632Y-79333333D02*
X71882870Y-79285714D01*
X71882870Y-79285714D02*
X71930489Y-79238095D01*
X71930489Y-79238095D02*
X71978108Y-79142857D01*
X71978108Y-79142857D02*
X71978108Y-78761905D01*
X71882870Y-79904762D02*
X71835251Y-79809524D01*
X71835251Y-79809524D02*
X71787632Y-79761905D01*
X71787632Y-79761905D02*
X71692394Y-79714286D01*
X71692394Y-79714286D02*
X71644775Y-79714286D01*
X71644775Y-79714286D02*
X71549537Y-79761905D01*
X71549537Y-79761905D02*
X71501918Y-79809524D01*
X71501918Y-79809524D02*
X71454299Y-79904762D01*
X71454299Y-79904762D02*
X71454299Y-80095238D01*
X71454299Y-80095238D02*
X71501918Y-80190476D01*
X71501918Y-80190476D02*
X71549537Y-80238095D01*
X71549537Y-80238095D02*
X71644775Y-80285714D01*
X71644775Y-80285714D02*
X71692394Y-80285714D01*
X71692394Y-80285714D02*
X71787632Y-80238095D01*
X71787632Y-80238095D02*
X71835251Y-80190476D01*
X71835251Y-80190476D02*
X71882870Y-80095238D01*
X71882870Y-80095238D02*
X71882870Y-79904762D01*
X71882870Y-79904762D02*
X71930489Y-79809524D01*
X71930489Y-79809524D02*
X71978108Y-79761905D01*
X71978108Y-79761905D02*
X72073346Y-79714286D01*
X72073346Y-79714286D02*
X72263822Y-79714286D01*
X72263822Y-79714286D02*
X72359060Y-79761905D01*
X72359060Y-79761905D02*
X72406680Y-79809524D01*
X72406680Y-79809524D02*
X72454299Y-79904762D01*
X72454299Y-79904762D02*
X72454299Y-80095238D01*
X72454299Y-80095238D02*
X72406680Y-80190476D01*
X72406680Y-80190476D02*
X72359060Y-80238095D01*
X72359060Y-80238095D02*
X72263822Y-80285714D01*
X72263822Y-80285714D02*
X72073346Y-80285714D01*
X72073346Y-80285714D02*
X71978108Y-80238095D01*
X71978108Y-80238095D02*
X71930489Y-80190476D01*
X71930489Y-80190476D02*
X71882870Y-80095238D01*
X46204299Y-76430833D02*
X45728108Y-76097500D01*
X46204299Y-75859405D02*
X45204299Y-75859405D01*
X45204299Y-75859405D02*
X45204299Y-76240357D01*
X45204299Y-76240357D02*
X45251918Y-76335595D01*
X45251918Y-76335595D02*
X45299537Y-76383214D01*
X45299537Y-76383214D02*
X45394775Y-76430833D01*
X45394775Y-76430833D02*
X45537632Y-76430833D01*
X45537632Y-76430833D02*
X45632870Y-76383214D01*
X45632870Y-76383214D02*
X45680489Y-76335595D01*
X45680489Y-76335595D02*
X45728108Y-76240357D01*
X45728108Y-76240357D02*
X45728108Y-75859405D01*
X45204299Y-77335595D02*
X45204299Y-76859405D01*
X45204299Y-76859405D02*
X45680489Y-76811786D01*
X45680489Y-76811786D02*
X45632870Y-76859405D01*
X45632870Y-76859405D02*
X45585251Y-76954643D01*
X45585251Y-76954643D02*
X45585251Y-77192738D01*
X45585251Y-77192738D02*
X45632870Y-77287976D01*
X45632870Y-77287976D02*
X45680489Y-77335595D01*
X45680489Y-77335595D02*
X45775727Y-77383214D01*
X45775727Y-77383214D02*
X46013822Y-77383214D01*
X46013822Y-77383214D02*
X46109060Y-77335595D01*
X46109060Y-77335595D02*
X46156680Y-77287976D01*
X46156680Y-77287976D02*
X46204299Y-77192738D01*
X46204299Y-77192738D02*
X46204299Y-76954643D01*
X46204299Y-76954643D02*
X46156680Y-76859405D01*
X46156680Y-76859405D02*
X46109060Y-76811786D01*
X51454299Y-79488095D02*
X52263822Y-79488095D01*
X52263822Y-79488095D02*
X52359060Y-79535714D01*
X52359060Y-79535714D02*
X52406680Y-79583333D01*
X52406680Y-79583333D02*
X52454299Y-79678571D01*
X52454299Y-79678571D02*
X52454299Y-79869047D01*
X52454299Y-79869047D02*
X52406680Y-79964285D01*
X52406680Y-79964285D02*
X52359060Y-80011904D01*
X52359060Y-80011904D02*
X52263822Y-80059523D01*
X52263822Y-80059523D02*
X51454299Y-80059523D01*
X51549537Y-80488095D02*
X51501918Y-80535714D01*
X51501918Y-80535714D02*
X51454299Y-80630952D01*
X51454299Y-80630952D02*
X51454299Y-80869047D01*
X51454299Y-80869047D02*
X51501918Y-80964285D01*
X51501918Y-80964285D02*
X51549537Y-81011904D01*
X51549537Y-81011904D02*
X51644775Y-81059523D01*
X51644775Y-81059523D02*
X51740013Y-81059523D01*
X51740013Y-81059523D02*
X51882870Y-81011904D01*
X51882870Y-81011904D02*
X52454299Y-80440476D01*
X52454299Y-80440476D02*
X52454299Y-81059523D01*
X54869299Y-78367167D02*
X54869299Y-77795739D01*
X54869299Y-78081453D02*
X53869299Y-78081453D01*
X53869299Y-78081453D02*
X54012156Y-77986215D01*
X54012156Y-77986215D02*
X54107394Y-77890977D01*
X54107394Y-77890977D02*
X54155013Y-77795739D01*
X21454299Y-106488095D02*
X22263822Y-106488095D01*
X22263822Y-106488095D02*
X22359060Y-106535714D01*
X22359060Y-106535714D02*
X22406680Y-106583333D01*
X22406680Y-106583333D02*
X22454299Y-106678571D01*
X22454299Y-106678571D02*
X22454299Y-106869047D01*
X22454299Y-106869047D02*
X22406680Y-106964285D01*
X22406680Y-106964285D02*
X22359060Y-107011904D01*
X22359060Y-107011904D02*
X22263822Y-107059523D01*
X22263822Y-107059523D02*
X21454299Y-107059523D01*
X21454299Y-108011904D02*
X21454299Y-107535714D01*
X21454299Y-107535714D02*
X21930489Y-107488095D01*
X21930489Y-107488095D02*
X21882870Y-107535714D01*
X21882870Y-107535714D02*
X21835251Y-107630952D01*
X21835251Y-107630952D02*
X21835251Y-107869047D01*
X21835251Y-107869047D02*
X21882870Y-107964285D01*
X21882870Y-107964285D02*
X21930489Y-108011904D01*
X21930489Y-108011904D02*
X22025727Y-108059523D01*
X22025727Y-108059523D02*
X22263822Y-108059523D01*
X22263822Y-108059523D02*
X22359060Y-108011904D01*
X22359060Y-108011904D02*
X22406680Y-107964285D01*
X22406680Y-107964285D02*
X22454299Y-107869047D01*
X22454299Y-107869047D02*
X22454299Y-107630952D01*
X22454299Y-107630952D02*
X22406680Y-107535714D01*
X22406680Y-107535714D02*
X22359060Y-107488095D01*
X24869299Y-105367167D02*
X24869299Y-104795739D01*
X24869299Y-105081453D02*
X23869299Y-105081453D01*
X23869299Y-105081453D02*
X24012156Y-104986215D01*
X24012156Y-104986215D02*
X24107394Y-104890977D01*
X24107394Y-104890977D02*
X24155013Y-104795739D01*
X56204299Y-103333333D02*
X55728108Y-103000000D01*
X56204299Y-102761905D02*
X55204299Y-102761905D01*
X55204299Y-102761905D02*
X55204299Y-103142857D01*
X55204299Y-103142857D02*
X55251918Y-103238095D01*
X55251918Y-103238095D02*
X55299537Y-103285714D01*
X55299537Y-103285714D02*
X55394775Y-103333333D01*
X55394775Y-103333333D02*
X55537632Y-103333333D01*
X55537632Y-103333333D02*
X55632870Y-103285714D01*
X55632870Y-103285714D02*
X55680489Y-103238095D01*
X55680489Y-103238095D02*
X55728108Y-103142857D01*
X55728108Y-103142857D02*
X55728108Y-102761905D01*
X55204299Y-103666667D02*
X55204299Y-104285714D01*
X55204299Y-104285714D02*
X55585251Y-103952381D01*
X55585251Y-103952381D02*
X55585251Y-104095238D01*
X55585251Y-104095238D02*
X55632870Y-104190476D01*
X55632870Y-104190476D02*
X55680489Y-104238095D01*
X55680489Y-104238095D02*
X55775727Y-104285714D01*
X55775727Y-104285714D02*
X56013822Y-104285714D01*
X56013822Y-104285714D02*
X56109060Y-104238095D01*
X56109060Y-104238095D02*
X56156680Y-104190476D01*
X56156680Y-104190476D02*
X56204299Y-104095238D01*
X56204299Y-104095238D02*
X56204299Y-103809524D01*
X56204299Y-103809524D02*
X56156680Y-103714286D01*
X56156680Y-103714286D02*
X56109060Y-103666667D01*
X31266666Y-52259060D02*
X31314285Y-52306680D01*
X31314285Y-52306680D02*
X31457142Y-52354299D01*
X31457142Y-52354299D02*
X31552380Y-52354299D01*
X31552380Y-52354299D02*
X31695237Y-52306680D01*
X31695237Y-52306680D02*
X31790475Y-52211441D01*
X31790475Y-52211441D02*
X31838094Y-52116203D01*
X31838094Y-52116203D02*
X31885713Y-51925727D01*
X31885713Y-51925727D02*
X31885713Y-51782870D01*
X31885713Y-51782870D02*
X31838094Y-51592394D01*
X31838094Y-51592394D02*
X31790475Y-51497156D01*
X31790475Y-51497156D02*
X31695237Y-51401918D01*
X31695237Y-51401918D02*
X31552380Y-51354299D01*
X31552380Y-51354299D02*
X31457142Y-51354299D01*
X31457142Y-51354299D02*
X31314285Y-51401918D01*
X31314285Y-51401918D02*
X31266666Y-51449537D01*
X30885713Y-51449537D02*
X30838094Y-51401918D01*
X30838094Y-51401918D02*
X30742856Y-51354299D01*
X30742856Y-51354299D02*
X30504761Y-51354299D01*
X30504761Y-51354299D02*
X30409523Y-51401918D01*
X30409523Y-51401918D02*
X30361904Y-51449537D01*
X30361904Y-51449537D02*
X30314285Y-51544775D01*
X30314285Y-51544775D02*
X30314285Y-51640013D01*
X30314285Y-51640013D02*
X30361904Y-51782870D01*
X30361904Y-51782870D02*
X30933332Y-52354299D01*
X30933332Y-52354299D02*
X30314285Y-52354299D01*
X48454299Y-106333333D02*
X47978108Y-106000000D01*
X48454299Y-105761905D02*
X47454299Y-105761905D01*
X47454299Y-105761905D02*
X47454299Y-106142857D01*
X47454299Y-106142857D02*
X47501918Y-106238095D01*
X47501918Y-106238095D02*
X47549537Y-106285714D01*
X47549537Y-106285714D02*
X47644775Y-106333333D01*
X47644775Y-106333333D02*
X47787632Y-106333333D01*
X47787632Y-106333333D02*
X47882870Y-106285714D01*
X47882870Y-106285714D02*
X47930489Y-106238095D01*
X47930489Y-106238095D02*
X47978108Y-106142857D01*
X47978108Y-106142857D02*
X47978108Y-105761905D01*
X47549537Y-106714286D02*
X47501918Y-106761905D01*
X47501918Y-106761905D02*
X47454299Y-106857143D01*
X47454299Y-106857143D02*
X47454299Y-107095238D01*
X47454299Y-107095238D02*
X47501918Y-107190476D01*
X47501918Y-107190476D02*
X47549537Y-107238095D01*
X47549537Y-107238095D02*
X47644775Y-107285714D01*
X47644775Y-107285714D02*
X47740013Y-107285714D01*
X47740013Y-107285714D02*
X47882870Y-107238095D01*
X47882870Y-107238095D02*
X48454299Y-106666667D01*
X48454299Y-106666667D02*
X48454299Y-107285714D01*
X75454299Y-79488095D02*
X76263822Y-79488095D01*
X76263822Y-79488095D02*
X76359060Y-79535714D01*
X76359060Y-79535714D02*
X76406680Y-79583333D01*
X76406680Y-79583333D02*
X76454299Y-79678571D01*
X76454299Y-79678571D02*
X76454299Y-79869047D01*
X76454299Y-79869047D02*
X76406680Y-79964285D01*
X76406680Y-79964285D02*
X76359060Y-80011904D01*
X76359060Y-80011904D02*
X76263822Y-80059523D01*
X76263822Y-80059523D02*
X75454299Y-80059523D01*
X75787632Y-80964285D02*
X76454299Y-80964285D01*
X75406680Y-80726190D02*
X76120965Y-80488095D01*
X76120965Y-80488095D02*
X76120965Y-81107142D01*
X78919299Y-78367167D02*
X78919299Y-77795739D01*
X78919299Y-78081453D02*
X77919299Y-78081453D01*
X77919299Y-78081453D02*
X78062156Y-77986215D01*
X78062156Y-77986215D02*
X78157394Y-77890977D01*
X78157394Y-77890977D02*
X78205013Y-77795739D01*
X41454299Y-79488095D02*
X42263822Y-79488095D01*
X42263822Y-79488095D02*
X42359060Y-79535714D01*
X42359060Y-79535714D02*
X42406680Y-79583333D01*
X42406680Y-79583333D02*
X42454299Y-79678571D01*
X42454299Y-79678571D02*
X42454299Y-79869047D01*
X42454299Y-79869047D02*
X42406680Y-79964285D01*
X42406680Y-79964285D02*
X42359060Y-80011904D01*
X42359060Y-80011904D02*
X42263822Y-80059523D01*
X42263822Y-80059523D02*
X41454299Y-80059523D01*
X41454299Y-80440476D02*
X41454299Y-81059523D01*
X41454299Y-81059523D02*
X41835251Y-80726190D01*
X41835251Y-80726190D02*
X41835251Y-80869047D01*
X41835251Y-80869047D02*
X41882870Y-80964285D01*
X41882870Y-80964285D02*
X41930489Y-81011904D01*
X41930489Y-81011904D02*
X42025727Y-81059523D01*
X42025727Y-81059523D02*
X42263822Y-81059523D01*
X42263822Y-81059523D02*
X42359060Y-81011904D01*
X42359060Y-81011904D02*
X42406680Y-80964285D01*
X42406680Y-80964285D02*
X42454299Y-80869047D01*
X42454299Y-80869047D02*
X42454299Y-80583333D01*
X42454299Y-80583333D02*
X42406680Y-80488095D01*
X42406680Y-80488095D02*
X42359060Y-80440476D01*
X44869299Y-78617167D02*
X44869299Y-78045739D01*
X44869299Y-78331453D02*
X43869299Y-78331453D01*
X43869299Y-78331453D02*
X44012156Y-78236215D01*
X44012156Y-78236215D02*
X44107394Y-78140977D01*
X44107394Y-78140977D02*
X44155013Y-78045739D01*
X92454299Y-106333333D02*
X91978108Y-106000000D01*
X92454299Y-105761905D02*
X91454299Y-105761905D01*
X91454299Y-105761905D02*
X91454299Y-106142857D01*
X91454299Y-106142857D02*
X91501918Y-106238095D01*
X91501918Y-106238095D02*
X91549537Y-106285714D01*
X91549537Y-106285714D02*
X91644775Y-106333333D01*
X91644775Y-106333333D02*
X91787632Y-106333333D01*
X91787632Y-106333333D02*
X91882870Y-106285714D01*
X91882870Y-106285714D02*
X91930489Y-106238095D01*
X91930489Y-106238095D02*
X91978108Y-106142857D01*
X91978108Y-106142857D02*
X91978108Y-105761905D01*
X91549537Y-106714286D02*
X91501918Y-106761905D01*
X91501918Y-106761905D02*
X91454299Y-106857143D01*
X91454299Y-106857143D02*
X91454299Y-107095238D01*
X91454299Y-107095238D02*
X91501918Y-107190476D01*
X91501918Y-107190476D02*
X91549537Y-107238095D01*
X91549537Y-107238095D02*
X91644775Y-107285714D01*
X91644775Y-107285714D02*
X91740013Y-107285714D01*
X91740013Y-107285714D02*
X91882870Y-107238095D01*
X91882870Y-107238095D02*
X92454299Y-106666667D01*
X92454299Y-106666667D02*
X92454299Y-107285714D01*
X90204299Y-103430833D02*
X89728108Y-103097500D01*
X90204299Y-102859405D02*
X89204299Y-102859405D01*
X89204299Y-102859405D02*
X89204299Y-103240357D01*
X89204299Y-103240357D02*
X89251918Y-103335595D01*
X89251918Y-103335595D02*
X89299537Y-103383214D01*
X89299537Y-103383214D02*
X89394775Y-103430833D01*
X89394775Y-103430833D02*
X89537632Y-103430833D01*
X89537632Y-103430833D02*
X89632870Y-103383214D01*
X89632870Y-103383214D02*
X89680489Y-103335595D01*
X89680489Y-103335595D02*
X89728108Y-103240357D01*
X89728108Y-103240357D02*
X89728108Y-102859405D01*
X89204299Y-104335595D02*
X89204299Y-103859405D01*
X89204299Y-103859405D02*
X89680489Y-103811786D01*
X89680489Y-103811786D02*
X89632870Y-103859405D01*
X89632870Y-103859405D02*
X89585251Y-103954643D01*
X89585251Y-103954643D02*
X89585251Y-104192738D01*
X89585251Y-104192738D02*
X89632870Y-104287976D01*
X89632870Y-104287976D02*
X89680489Y-104335595D01*
X89680489Y-104335595D02*
X89775727Y-104383214D01*
X89775727Y-104383214D02*
X90013822Y-104383214D01*
X90013822Y-104383214D02*
X90109060Y-104335595D01*
X90109060Y-104335595D02*
X90156680Y-104287976D01*
X90156680Y-104287976D02*
X90204299Y-104192738D01*
X90204299Y-104192738D02*
X90204299Y-103954643D01*
X90204299Y-103954643D02*
X90156680Y-103859405D01*
X90156680Y-103859405D02*
X90109060Y-103811786D01*
X100204299Y-76333333D02*
X99728108Y-76000000D01*
X100204299Y-75761905D02*
X99204299Y-75761905D01*
X99204299Y-75761905D02*
X99204299Y-76142857D01*
X99204299Y-76142857D02*
X99251918Y-76238095D01*
X99251918Y-76238095D02*
X99299537Y-76285714D01*
X99299537Y-76285714D02*
X99394775Y-76333333D01*
X99394775Y-76333333D02*
X99537632Y-76333333D01*
X99537632Y-76333333D02*
X99632870Y-76285714D01*
X99632870Y-76285714D02*
X99680489Y-76238095D01*
X99680489Y-76238095D02*
X99728108Y-76142857D01*
X99728108Y-76142857D02*
X99728108Y-75761905D01*
X99204299Y-76666667D02*
X99204299Y-77285714D01*
X99204299Y-77285714D02*
X99585251Y-76952381D01*
X99585251Y-76952381D02*
X99585251Y-77095238D01*
X99585251Y-77095238D02*
X99632870Y-77190476D01*
X99632870Y-77190476D02*
X99680489Y-77238095D01*
X99680489Y-77238095D02*
X99775727Y-77285714D01*
X99775727Y-77285714D02*
X100013822Y-77285714D01*
X100013822Y-77285714D02*
X100109060Y-77238095D01*
X100109060Y-77238095D02*
X100156680Y-77190476D01*
X100156680Y-77190476D02*
X100204299Y-77095238D01*
X100204299Y-77095238D02*
X100204299Y-76809524D01*
X100204299Y-76809524D02*
X100156680Y-76714286D01*
X100156680Y-76714286D02*
X100109060Y-76666667D01*
X65454299Y-79488095D02*
X66263822Y-79488095D01*
X66263822Y-79488095D02*
X66359060Y-79535714D01*
X66359060Y-79535714D02*
X66406680Y-79583333D01*
X66406680Y-79583333D02*
X66454299Y-79678571D01*
X66454299Y-79678571D02*
X66454299Y-79869047D01*
X66454299Y-79869047D02*
X66406680Y-79964285D01*
X66406680Y-79964285D02*
X66359060Y-80011904D01*
X66359060Y-80011904D02*
X66263822Y-80059523D01*
X66263822Y-80059523D02*
X65454299Y-80059523D01*
X65454299Y-81011904D02*
X65454299Y-80535714D01*
X65454299Y-80535714D02*
X65930489Y-80488095D01*
X65930489Y-80488095D02*
X65882870Y-80535714D01*
X65882870Y-80535714D02*
X65835251Y-80630952D01*
X65835251Y-80630952D02*
X65835251Y-80869047D01*
X65835251Y-80869047D02*
X65882870Y-80964285D01*
X65882870Y-80964285D02*
X65930489Y-81011904D01*
X65930489Y-81011904D02*
X66025727Y-81059523D01*
X66025727Y-81059523D02*
X66263822Y-81059523D01*
X66263822Y-81059523D02*
X66359060Y-81011904D01*
X66359060Y-81011904D02*
X66406680Y-80964285D01*
X66406680Y-80964285D02*
X66454299Y-80869047D01*
X66454299Y-80869047D02*
X66454299Y-80630952D01*
X66454299Y-80630952D02*
X66406680Y-80535714D01*
X66406680Y-80535714D02*
X66359060Y-80488095D01*
X68869299Y-78367167D02*
X68869299Y-77795739D01*
X68869299Y-78081453D02*
X67869299Y-78081453D01*
X67869299Y-78081453D02*
X68012156Y-77986215D01*
X68012156Y-77986215D02*
X68107394Y-77890977D01*
X68107394Y-77890977D02*
X68155013Y-77795739D01*
X70454299Y-102607142D02*
X69978108Y-102273809D01*
X70454299Y-102035714D02*
X69454299Y-102035714D01*
X69454299Y-102035714D02*
X69454299Y-102416666D01*
X69454299Y-102416666D02*
X69501918Y-102511904D01*
X69501918Y-102511904D02*
X69549537Y-102559523D01*
X69549537Y-102559523D02*
X69644775Y-102607142D01*
X69644775Y-102607142D02*
X69787632Y-102607142D01*
X69787632Y-102607142D02*
X69882870Y-102559523D01*
X69882870Y-102559523D02*
X69930489Y-102511904D01*
X69930489Y-102511904D02*
X69978108Y-102416666D01*
X69978108Y-102416666D02*
X69978108Y-102035714D01*
X70454299Y-103559523D02*
X70454299Y-102988095D01*
X70454299Y-103273809D02*
X69454299Y-103273809D01*
X69454299Y-103273809D02*
X69597156Y-103178571D01*
X69597156Y-103178571D02*
X69692394Y-103083333D01*
X69692394Y-103083333D02*
X69740013Y-102988095D01*
X70454299Y-104511904D02*
X70454299Y-103940476D01*
X70454299Y-104226190D02*
X69454299Y-104226190D01*
X69454299Y-104226190D02*
X69597156Y-104130952D01*
X69597156Y-104130952D02*
X69692394Y-104035714D01*
X69692394Y-104035714D02*
X69740013Y-103940476D01*
X28454299Y-106333333D02*
X27978108Y-106000000D01*
X28454299Y-105761905D02*
X27454299Y-105761905D01*
X27454299Y-105761905D02*
X27454299Y-106142857D01*
X27454299Y-106142857D02*
X27501918Y-106238095D01*
X27501918Y-106238095D02*
X27549537Y-106285714D01*
X27549537Y-106285714D02*
X27644775Y-106333333D01*
X27644775Y-106333333D02*
X27787632Y-106333333D01*
X27787632Y-106333333D02*
X27882870Y-106285714D01*
X27882870Y-106285714D02*
X27930489Y-106238095D01*
X27930489Y-106238095D02*
X27978108Y-106142857D01*
X27978108Y-106142857D02*
X27978108Y-105761905D01*
X27882870Y-106904762D02*
X27835251Y-106809524D01*
X27835251Y-106809524D02*
X27787632Y-106761905D01*
X27787632Y-106761905D02*
X27692394Y-106714286D01*
X27692394Y-106714286D02*
X27644775Y-106714286D01*
X27644775Y-106714286D02*
X27549537Y-106761905D01*
X27549537Y-106761905D02*
X27501918Y-106809524D01*
X27501918Y-106809524D02*
X27454299Y-106904762D01*
X27454299Y-106904762D02*
X27454299Y-107095238D01*
X27454299Y-107095238D02*
X27501918Y-107190476D01*
X27501918Y-107190476D02*
X27549537Y-107238095D01*
X27549537Y-107238095D02*
X27644775Y-107285714D01*
X27644775Y-107285714D02*
X27692394Y-107285714D01*
X27692394Y-107285714D02*
X27787632Y-107238095D01*
X27787632Y-107238095D02*
X27835251Y-107190476D01*
X27835251Y-107190476D02*
X27882870Y-107095238D01*
X27882870Y-107095238D02*
X27882870Y-106904762D01*
X27882870Y-106904762D02*
X27930489Y-106809524D01*
X27930489Y-106809524D02*
X27978108Y-106761905D01*
X27978108Y-106761905D02*
X28073346Y-106714286D01*
X28073346Y-106714286D02*
X28263822Y-106714286D01*
X28263822Y-106714286D02*
X28359060Y-106761905D01*
X28359060Y-106761905D02*
X28406680Y-106809524D01*
X28406680Y-106809524D02*
X28454299Y-106904762D01*
X28454299Y-106904762D02*
X28454299Y-107095238D01*
X28454299Y-107095238D02*
X28406680Y-107190476D01*
X28406680Y-107190476D02*
X28359060Y-107238095D01*
X28359060Y-107238095D02*
X28263822Y-107285714D01*
X28263822Y-107285714D02*
X28073346Y-107285714D01*
X28073346Y-107285714D02*
X27978108Y-107238095D01*
X27978108Y-107238095D02*
X27930489Y-107190476D01*
X27930489Y-107190476D02*
X27882870Y-107095238D01*
X95454299Y-106488095D02*
X96263822Y-106488095D01*
X96263822Y-106488095D02*
X96359060Y-106535714D01*
X96359060Y-106535714D02*
X96406680Y-106583333D01*
X96406680Y-106583333D02*
X96454299Y-106678571D01*
X96454299Y-106678571D02*
X96454299Y-106869047D01*
X96454299Y-106869047D02*
X96406680Y-106964285D01*
X96406680Y-106964285D02*
X96359060Y-107011904D01*
X96359060Y-107011904D02*
X96263822Y-107059523D01*
X96263822Y-107059523D02*
X95454299Y-107059523D01*
X95549537Y-107488095D02*
X95501918Y-107535714D01*
X95501918Y-107535714D02*
X95454299Y-107630952D01*
X95454299Y-107630952D02*
X95454299Y-107869047D01*
X95454299Y-107869047D02*
X95501918Y-107964285D01*
X95501918Y-107964285D02*
X95549537Y-108011904D01*
X95549537Y-108011904D02*
X95644775Y-108059523D01*
X95644775Y-108059523D02*
X95740013Y-108059523D01*
X95740013Y-108059523D02*
X95882870Y-108011904D01*
X95882870Y-108011904D02*
X96454299Y-107440476D01*
X96454299Y-107440476D02*
X96454299Y-108059523D01*
X98869299Y-105367167D02*
X98869299Y-104795739D01*
X98869299Y-105081453D02*
X97869299Y-105081453D01*
X97869299Y-105081453D02*
X98012156Y-104986215D01*
X98012156Y-104986215D02*
X98107394Y-104890977D01*
X98107394Y-104890977D02*
X98155013Y-104795739D01*
X20901799Y-56630833D02*
X20425608Y-56297500D01*
X20901799Y-56059405D02*
X19901799Y-56059405D01*
X19901799Y-56059405D02*
X19901799Y-56440357D01*
X19901799Y-56440357D02*
X19949418Y-56535595D01*
X19949418Y-56535595D02*
X19997037Y-56583214D01*
X19997037Y-56583214D02*
X20092275Y-56630833D01*
X20092275Y-56630833D02*
X20235132Y-56630833D01*
X20235132Y-56630833D02*
X20330370Y-56583214D01*
X20330370Y-56583214D02*
X20377989Y-56535595D01*
X20377989Y-56535595D02*
X20425608Y-56440357D01*
X20425608Y-56440357D02*
X20425608Y-56059405D01*
X19901799Y-57535595D02*
X19901799Y-57059405D01*
X19901799Y-57059405D02*
X20377989Y-57011786D01*
X20377989Y-57011786D02*
X20330370Y-57059405D01*
X20330370Y-57059405D02*
X20282751Y-57154643D01*
X20282751Y-57154643D02*
X20282751Y-57392738D01*
X20282751Y-57392738D02*
X20330370Y-57487976D01*
X20330370Y-57487976D02*
X20377989Y-57535595D01*
X20377989Y-57535595D02*
X20473227Y-57583214D01*
X20473227Y-57583214D02*
X20711322Y-57583214D01*
X20711322Y-57583214D02*
X20806560Y-57535595D01*
X20806560Y-57535595D02*
X20854180Y-57487976D01*
X20854180Y-57487976D02*
X20901799Y-57392738D01*
X20901799Y-57392738D02*
X20901799Y-57154643D01*
X20901799Y-57154643D02*
X20854180Y-57059405D01*
X20854180Y-57059405D02*
X20806560Y-57011786D01*
X31454299Y-106488095D02*
X32263822Y-106488095D01*
X32263822Y-106488095D02*
X32359060Y-106535714D01*
X32359060Y-106535714D02*
X32406680Y-106583333D01*
X32406680Y-106583333D02*
X32454299Y-106678571D01*
X32454299Y-106678571D02*
X32454299Y-106869047D01*
X32454299Y-106869047D02*
X32406680Y-106964285D01*
X32406680Y-106964285D02*
X32359060Y-107011904D01*
X32359060Y-107011904D02*
X32263822Y-107059523D01*
X32263822Y-107059523D02*
X31454299Y-107059523D01*
X31787632Y-107964285D02*
X32454299Y-107964285D01*
X31406680Y-107726190D02*
X32120965Y-107488095D01*
X32120965Y-107488095D02*
X32120965Y-108107142D01*
X34919299Y-105367167D02*
X34919299Y-104795739D01*
X34919299Y-105081453D02*
X33919299Y-105081453D01*
X33919299Y-105081453D02*
X34062156Y-104986215D01*
X34062156Y-104986215D02*
X34157394Y-104890977D01*
X34157394Y-104890977D02*
X34205013Y-104795739D01*
X38454299Y-79333333D02*
X37978108Y-79000000D01*
X38454299Y-78761905D02*
X37454299Y-78761905D01*
X37454299Y-78761905D02*
X37454299Y-79142857D01*
X37454299Y-79142857D02*
X37501918Y-79238095D01*
X37501918Y-79238095D02*
X37549537Y-79285714D01*
X37549537Y-79285714D02*
X37644775Y-79333333D01*
X37644775Y-79333333D02*
X37787632Y-79333333D01*
X37787632Y-79333333D02*
X37882870Y-79285714D01*
X37882870Y-79285714D02*
X37930489Y-79238095D01*
X37930489Y-79238095D02*
X37978108Y-79142857D01*
X37978108Y-79142857D02*
X37978108Y-78761905D01*
X37787632Y-80190476D02*
X38454299Y-80190476D01*
X37406680Y-79952381D02*
X38120965Y-79714286D01*
X38120965Y-79714286D02*
X38120965Y-80333333D01*
X48454299Y-79333333D02*
X47978108Y-79000000D01*
X48454299Y-78761905D02*
X47454299Y-78761905D01*
X47454299Y-78761905D02*
X47454299Y-79142857D01*
X47454299Y-79142857D02*
X47501918Y-79238095D01*
X47501918Y-79238095D02*
X47549537Y-79285714D01*
X47549537Y-79285714D02*
X47644775Y-79333333D01*
X47644775Y-79333333D02*
X47787632Y-79333333D01*
X47787632Y-79333333D02*
X47882870Y-79285714D01*
X47882870Y-79285714D02*
X47930489Y-79238095D01*
X47930489Y-79238095D02*
X47978108Y-79142857D01*
X47978108Y-79142857D02*
X47978108Y-78761905D01*
X47549537Y-79714286D02*
X47501918Y-79761905D01*
X47501918Y-79761905D02*
X47454299Y-79857143D01*
X47454299Y-79857143D02*
X47454299Y-80095238D01*
X47454299Y-80095238D02*
X47501918Y-80190476D01*
X47501918Y-80190476D02*
X47549537Y-80238095D01*
X47549537Y-80238095D02*
X47644775Y-80285714D01*
X47644775Y-80285714D02*
X47740013Y-80285714D01*
X47740013Y-80285714D02*
X47882870Y-80238095D01*
X47882870Y-80238095D02*
X48454299Y-79666667D01*
X48454299Y-79666667D02*
X48454299Y-80285714D01*
X65454299Y-106488095D02*
X66263822Y-106488095D01*
X66263822Y-106488095D02*
X66359060Y-106535714D01*
X66359060Y-106535714D02*
X66406680Y-106583333D01*
X66406680Y-106583333D02*
X66454299Y-106678571D01*
X66454299Y-106678571D02*
X66454299Y-106869047D01*
X66454299Y-106869047D02*
X66406680Y-106964285D01*
X66406680Y-106964285D02*
X66359060Y-107011904D01*
X66359060Y-107011904D02*
X66263822Y-107059523D01*
X66263822Y-107059523D02*
X65454299Y-107059523D01*
X65454299Y-108011904D02*
X65454299Y-107535714D01*
X65454299Y-107535714D02*
X65930489Y-107488095D01*
X65930489Y-107488095D02*
X65882870Y-107535714D01*
X65882870Y-107535714D02*
X65835251Y-107630952D01*
X65835251Y-107630952D02*
X65835251Y-107869047D01*
X65835251Y-107869047D02*
X65882870Y-107964285D01*
X65882870Y-107964285D02*
X65930489Y-108011904D01*
X65930489Y-108011904D02*
X66025727Y-108059523D01*
X66025727Y-108059523D02*
X66263822Y-108059523D01*
X66263822Y-108059523D02*
X66359060Y-108011904D01*
X66359060Y-108011904D02*
X66406680Y-107964285D01*
X66406680Y-107964285D02*
X66454299Y-107869047D01*
X66454299Y-107869047D02*
X66454299Y-107630952D01*
X66454299Y-107630952D02*
X66406680Y-107535714D01*
X66406680Y-107535714D02*
X66359060Y-107488095D01*
X68869299Y-105367167D02*
X68869299Y-104795739D01*
X68869299Y-105081453D02*
X67869299Y-105081453D01*
X67869299Y-105081453D02*
X68012156Y-104986215D01*
X68012156Y-104986215D02*
X68107394Y-104890977D01*
X68107394Y-104890977D02*
X68155013Y-104795739D01*
X34269166Y-58554299D02*
X34602499Y-58078108D01*
X34840594Y-58554299D02*
X34840594Y-57554299D01*
X34840594Y-57554299D02*
X34459642Y-57554299D01*
X34459642Y-57554299D02*
X34364404Y-57601918D01*
X34364404Y-57601918D02*
X34316785Y-57649537D01*
X34316785Y-57649537D02*
X34269166Y-57744775D01*
X34269166Y-57744775D02*
X34269166Y-57887632D01*
X34269166Y-57887632D02*
X34316785Y-57982870D01*
X34316785Y-57982870D02*
X34364404Y-58030489D01*
X34364404Y-58030489D02*
X34459642Y-58078108D01*
X34459642Y-58078108D02*
X34840594Y-58078108D01*
X33935832Y-57554299D02*
X33316785Y-57554299D01*
X33316785Y-57554299D02*
X33650118Y-57935251D01*
X33650118Y-57935251D02*
X33507261Y-57935251D01*
X33507261Y-57935251D02*
X33412023Y-57982870D01*
X33412023Y-57982870D02*
X33364404Y-58030489D01*
X33364404Y-58030489D02*
X33316785Y-58125727D01*
X33316785Y-58125727D02*
X33316785Y-58363822D01*
X33316785Y-58363822D02*
X33364404Y-58459060D01*
X33364404Y-58459060D02*
X33412023Y-58506680D01*
X33412023Y-58506680D02*
X33507261Y-58554299D01*
X33507261Y-58554299D02*
X33792975Y-58554299D01*
X33792975Y-58554299D02*
X33888213Y-58506680D01*
X33888213Y-58506680D02*
X33935832Y-58459060D01*
X62454299Y-79333333D02*
X61978108Y-79000000D01*
X62454299Y-78761905D02*
X61454299Y-78761905D01*
X61454299Y-78761905D02*
X61454299Y-79142857D01*
X61454299Y-79142857D02*
X61501918Y-79238095D01*
X61501918Y-79238095D02*
X61549537Y-79285714D01*
X61549537Y-79285714D02*
X61644775Y-79333333D01*
X61644775Y-79333333D02*
X61787632Y-79333333D01*
X61787632Y-79333333D02*
X61882870Y-79285714D01*
X61882870Y-79285714D02*
X61930489Y-79238095D01*
X61930489Y-79238095D02*
X61978108Y-79142857D01*
X61978108Y-79142857D02*
X61978108Y-78761905D01*
X62454299Y-79809524D02*
X62454299Y-80000000D01*
X62454299Y-80000000D02*
X62406680Y-80095238D01*
X62406680Y-80095238D02*
X62359060Y-80142857D01*
X62359060Y-80142857D02*
X62216203Y-80238095D01*
X62216203Y-80238095D02*
X62025727Y-80285714D01*
X62025727Y-80285714D02*
X61644775Y-80285714D01*
X61644775Y-80285714D02*
X61549537Y-80238095D01*
X61549537Y-80238095D02*
X61501918Y-80190476D01*
X61501918Y-80190476D02*
X61454299Y-80095238D01*
X61454299Y-80095238D02*
X61454299Y-79904762D01*
X61454299Y-79904762D02*
X61501918Y-79809524D01*
X61501918Y-79809524D02*
X61549537Y-79761905D01*
X61549537Y-79761905D02*
X61644775Y-79714286D01*
X61644775Y-79714286D02*
X61882870Y-79714286D01*
X61882870Y-79714286D02*
X61978108Y-79761905D01*
X61978108Y-79761905D02*
X62025727Y-79809524D01*
X62025727Y-79809524D02*
X62073346Y-79904762D01*
X62073346Y-79904762D02*
X62073346Y-80095238D01*
X62073346Y-80095238D02*
X62025727Y-80190476D01*
X62025727Y-80190476D02*
X61978108Y-80238095D01*
X61978108Y-80238095D02*
X61882870Y-80285714D01*
X56204299Y-76333333D02*
X55728108Y-76000000D01*
X56204299Y-75761905D02*
X55204299Y-75761905D01*
X55204299Y-75761905D02*
X55204299Y-76142857D01*
X55204299Y-76142857D02*
X55251918Y-76238095D01*
X55251918Y-76238095D02*
X55299537Y-76285714D01*
X55299537Y-76285714D02*
X55394775Y-76333333D01*
X55394775Y-76333333D02*
X55537632Y-76333333D01*
X55537632Y-76333333D02*
X55632870Y-76285714D01*
X55632870Y-76285714D02*
X55680489Y-76238095D01*
X55680489Y-76238095D02*
X55728108Y-76142857D01*
X55728108Y-76142857D02*
X55728108Y-75761905D01*
X55204299Y-76666667D02*
X55204299Y-77285714D01*
X55204299Y-77285714D02*
X55585251Y-76952381D01*
X55585251Y-76952381D02*
X55585251Y-77095238D01*
X55585251Y-77095238D02*
X55632870Y-77190476D01*
X55632870Y-77190476D02*
X55680489Y-77238095D01*
X55680489Y-77238095D02*
X55775727Y-77285714D01*
X55775727Y-77285714D02*
X56013822Y-77285714D01*
X56013822Y-77285714D02*
X56109060Y-77238095D01*
X56109060Y-77238095D02*
X56156680Y-77190476D01*
X56156680Y-77190476D02*
X56204299Y-77095238D01*
X56204299Y-77095238D02*
X56204299Y-76809524D01*
X56204299Y-76809524D02*
X56156680Y-76714286D01*
X56156680Y-76714286D02*
X56109060Y-76666667D01*
X72454299Y-106333333D02*
X71978108Y-106000000D01*
X72454299Y-105761905D02*
X71454299Y-105761905D01*
X71454299Y-105761905D02*
X71454299Y-106142857D01*
X71454299Y-106142857D02*
X71501918Y-106238095D01*
X71501918Y-106238095D02*
X71549537Y-106285714D01*
X71549537Y-106285714D02*
X71644775Y-106333333D01*
X71644775Y-106333333D02*
X71787632Y-106333333D01*
X71787632Y-106333333D02*
X71882870Y-106285714D01*
X71882870Y-106285714D02*
X71930489Y-106238095D01*
X71930489Y-106238095D02*
X71978108Y-106142857D01*
X71978108Y-106142857D02*
X71978108Y-105761905D01*
X71882870Y-106904762D02*
X71835251Y-106809524D01*
X71835251Y-106809524D02*
X71787632Y-106761905D01*
X71787632Y-106761905D02*
X71692394Y-106714286D01*
X71692394Y-106714286D02*
X71644775Y-106714286D01*
X71644775Y-106714286D02*
X71549537Y-106761905D01*
X71549537Y-106761905D02*
X71501918Y-106809524D01*
X71501918Y-106809524D02*
X71454299Y-106904762D01*
X71454299Y-106904762D02*
X71454299Y-107095238D01*
X71454299Y-107095238D02*
X71501918Y-107190476D01*
X71501918Y-107190476D02*
X71549537Y-107238095D01*
X71549537Y-107238095D02*
X71644775Y-107285714D01*
X71644775Y-107285714D02*
X71692394Y-107285714D01*
X71692394Y-107285714D02*
X71787632Y-107238095D01*
X71787632Y-107238095D02*
X71835251Y-107190476D01*
X71835251Y-107190476D02*
X71882870Y-107095238D01*
X71882870Y-107095238D02*
X71882870Y-106904762D01*
X71882870Y-106904762D02*
X71930489Y-106809524D01*
X71930489Y-106809524D02*
X71978108Y-106761905D01*
X71978108Y-106761905D02*
X72073346Y-106714286D01*
X72073346Y-106714286D02*
X72263822Y-106714286D01*
X72263822Y-106714286D02*
X72359060Y-106761905D01*
X72359060Y-106761905D02*
X72406680Y-106809524D01*
X72406680Y-106809524D02*
X72454299Y-106904762D01*
X72454299Y-106904762D02*
X72454299Y-107095238D01*
X72454299Y-107095238D02*
X72406680Y-107190476D01*
X72406680Y-107190476D02*
X72359060Y-107238095D01*
X72359060Y-107238095D02*
X72263822Y-107285714D01*
X72263822Y-107285714D02*
X72073346Y-107285714D01*
X72073346Y-107285714D02*
X71978108Y-107238095D01*
X71978108Y-107238095D02*
X71930489Y-107190476D01*
X71930489Y-107190476D02*
X71882870Y-107095238D01*
X51454299Y-106488095D02*
X52263822Y-106488095D01*
X52263822Y-106488095D02*
X52359060Y-106535714D01*
X52359060Y-106535714D02*
X52406680Y-106583333D01*
X52406680Y-106583333D02*
X52454299Y-106678571D01*
X52454299Y-106678571D02*
X52454299Y-106869047D01*
X52454299Y-106869047D02*
X52406680Y-106964285D01*
X52406680Y-106964285D02*
X52359060Y-107011904D01*
X52359060Y-107011904D02*
X52263822Y-107059523D01*
X52263822Y-107059523D02*
X51454299Y-107059523D01*
X51549537Y-107488095D02*
X51501918Y-107535714D01*
X51501918Y-107535714D02*
X51454299Y-107630952D01*
X51454299Y-107630952D02*
X51454299Y-107869047D01*
X51454299Y-107869047D02*
X51501918Y-107964285D01*
X51501918Y-107964285D02*
X51549537Y-108011904D01*
X51549537Y-108011904D02*
X51644775Y-108059523D01*
X51644775Y-108059523D02*
X51740013Y-108059523D01*
X51740013Y-108059523D02*
X51882870Y-108011904D01*
X51882870Y-108011904D02*
X52454299Y-107440476D01*
X52454299Y-107440476D02*
X52454299Y-108059523D01*
X54869299Y-105367167D02*
X54869299Y-104795739D01*
X54869299Y-105081453D02*
X53869299Y-105081453D01*
X53869299Y-105081453D02*
X54012156Y-104986215D01*
X54012156Y-104986215D02*
X54107394Y-104890977D01*
X54107394Y-104890977D02*
X54155013Y-104795739D01*
X80204299Y-75357142D02*
X79728108Y-75023809D01*
X80204299Y-74785714D02*
X79204299Y-74785714D01*
X79204299Y-74785714D02*
X79204299Y-75166666D01*
X79204299Y-75166666D02*
X79251918Y-75261904D01*
X79251918Y-75261904D02*
X79299537Y-75309523D01*
X79299537Y-75309523D02*
X79394775Y-75357142D01*
X79394775Y-75357142D02*
X79537632Y-75357142D01*
X79537632Y-75357142D02*
X79632870Y-75309523D01*
X79632870Y-75309523D02*
X79680489Y-75261904D01*
X79680489Y-75261904D02*
X79728108Y-75166666D01*
X79728108Y-75166666D02*
X79728108Y-74785714D01*
X80204299Y-76309523D02*
X80204299Y-75738095D01*
X80204299Y-76023809D02*
X79204299Y-76023809D01*
X79204299Y-76023809D02*
X79347156Y-75928571D01*
X79347156Y-75928571D02*
X79442394Y-75833333D01*
X79442394Y-75833333D02*
X79490013Y-75738095D01*
X79204299Y-76928571D02*
X79204299Y-77023809D01*
X79204299Y-77023809D02*
X79251918Y-77119047D01*
X79251918Y-77119047D02*
X79299537Y-77166666D01*
X79299537Y-77166666D02*
X79394775Y-77214285D01*
X79394775Y-77214285D02*
X79585251Y-77261904D01*
X79585251Y-77261904D02*
X79823346Y-77261904D01*
X79823346Y-77261904D02*
X80013822Y-77214285D01*
X80013822Y-77214285D02*
X80109060Y-77166666D01*
X80109060Y-77166666D02*
X80156680Y-77119047D01*
X80156680Y-77119047D02*
X80204299Y-77023809D01*
X80204299Y-77023809D02*
X80204299Y-76928571D01*
X80204299Y-76928571D02*
X80156680Y-76833333D01*
X80156680Y-76833333D02*
X80109060Y-76785714D01*
X80109060Y-76785714D02*
X80013822Y-76738095D01*
X80013822Y-76738095D02*
X79823346Y-76690476D01*
X79823346Y-76690476D02*
X79585251Y-76690476D01*
X79585251Y-76690476D02*
X79394775Y-76738095D01*
X79394775Y-76738095D02*
X79299537Y-76785714D01*
X79299537Y-76785714D02*
X79251918Y-76833333D01*
X79251918Y-76833333D02*
X79204299Y-76928571D01*
D11*
%TO.C,R4*%
X37620000Y-108917621D02*
X37620000Y-108582379D01*
X38380000Y-108917621D02*
X38380000Y-108582379D01*
%TO.C,R8*%
X27620000Y-81917621D02*
X27620000Y-81582379D01*
X28380000Y-81917621D02*
X28380000Y-81582379D01*
%TO.C,R10*%
X35370000Y-78582379D02*
X35370000Y-78917621D01*
X36130000Y-78582379D02*
X36130000Y-78917621D01*
%TO.C,U5*%
X18910000Y-82040000D02*
X18910000Y-78840000D01*
X19380000Y-78470000D02*
X18910000Y-78840000D01*
X23280000Y-78470000D02*
X19380000Y-78470000D01*
X23290000Y-82040000D02*
X18910000Y-82040000D01*
%TO.C,U3*%
X82910000Y-109040000D02*
X82910000Y-105840000D01*
X83380000Y-105470000D02*
X82910000Y-105840000D01*
X87280000Y-105470000D02*
X83380000Y-105470000D01*
X87290000Y-109040000D02*
X82910000Y-109040000D01*
%TO.C,R4*%
X81620000Y-81917621D02*
X81620000Y-81582379D01*
X82380000Y-81917621D02*
X82380000Y-81582379D01*
%TO.C,U4*%
X72910000Y-109040000D02*
X72910000Y-105840000D01*
X73380000Y-105470000D02*
X72910000Y-105840000D01*
X77280000Y-105470000D02*
X73380000Y-105470000D01*
X77290000Y-109040000D02*
X72910000Y-109040000D01*
%TO.C,R4*%
X81620000Y-108917621D02*
X81620000Y-108582379D01*
X82380000Y-108917621D02*
X82380000Y-108582379D01*
%TO.C,U3*%
X82910000Y-82040000D02*
X82910000Y-78840000D01*
X83380000Y-78470000D02*
X82910000Y-78840000D01*
X87280000Y-78470000D02*
X83380000Y-78470000D01*
X87290000Y-82040000D02*
X82910000Y-82040000D01*
%TO.C,R9*%
X17620000Y-81917621D02*
X17620000Y-81582379D01*
X18380000Y-81917621D02*
X18380000Y-81582379D01*
%TO.C,R11*%
X25620000Y-105582379D02*
X25620000Y-105917621D01*
X26380000Y-105582379D02*
X26380000Y-105917621D01*
%TO.C,U3*%
X38910000Y-109040000D02*
X38910000Y-105840000D01*
X39380000Y-105470000D02*
X38910000Y-105840000D01*
X43280000Y-105470000D02*
X39380000Y-105470000D01*
X43290000Y-109040000D02*
X38910000Y-109040000D01*
%TO.C,R7*%
X21122500Y-37372379D02*
X21122500Y-37707621D01*
X21882500Y-37372379D02*
X21882500Y-37707621D01*
%TO.C,R10*%
X35370000Y-105582379D02*
X35370000Y-105917621D01*
X36130000Y-105582379D02*
X36130000Y-105917621D01*
%TO.C,R9*%
X17620000Y-108917621D02*
X17620000Y-108582379D01*
X18380000Y-108917621D02*
X18380000Y-108582379D01*
%TO.C,C1*%
X33084165Y-52840000D02*
X33315835Y-52840000D01*
X33084165Y-53560000D02*
X33315835Y-53560000D01*
%TO.C,R2*%
X91620000Y-81917621D02*
X91620000Y-81582379D01*
X92380000Y-81917621D02*
X92380000Y-81582379D01*
%TO.C,R1*%
X39020000Y-38829879D02*
X39020000Y-39165121D01*
X39780000Y-38829879D02*
X39780000Y-39165121D01*
%TO.C,R10*%
X79370000Y-105582379D02*
X79370000Y-105917621D01*
X80130000Y-105582379D02*
X80130000Y-105917621D01*
%TO.C,U4*%
X28910000Y-82040000D02*
X28910000Y-78840000D01*
X29380000Y-78470000D02*
X28910000Y-78840000D01*
X33280000Y-78470000D02*
X29380000Y-78470000D01*
X33290000Y-82040000D02*
X28910000Y-82040000D01*
%TO.C,R4*%
X37770121Y-58920000D02*
X37434879Y-58920000D01*
X37770121Y-59680000D02*
X37434879Y-59680000D01*
%TO.C,R8*%
X20020000Y-39107621D02*
X20020000Y-38772379D01*
X20780000Y-39107621D02*
X20780000Y-38772379D01*
%TO.C,R11*%
X25620000Y-78582379D02*
X25620000Y-78917621D01*
X26380000Y-78582379D02*
X26380000Y-78917621D01*
X69620000Y-78582379D02*
X69620000Y-78917621D01*
X70380000Y-78582379D02*
X70380000Y-78917621D01*
%TO.C,R5*%
X89370000Y-78582379D02*
X89370000Y-78917621D01*
X90130000Y-78582379D02*
X90130000Y-78917621D01*
X45370000Y-105582379D02*
X45370000Y-105917621D01*
X46130000Y-105582379D02*
X46130000Y-105917621D01*
%TO.C,U2*%
X92910000Y-82040000D02*
X92910000Y-78840000D01*
X93380000Y-78470000D02*
X92910000Y-78840000D01*
X97280000Y-78470000D02*
X93380000Y-78470000D01*
X97290000Y-82040000D02*
X92910000Y-82040000D01*
%TO.C,R2*%
X38020000Y-40465121D02*
X38020000Y-40129879D01*
X38780000Y-40465121D02*
X38780000Y-40129879D01*
%TO.C,R13*%
X30729879Y-33520000D02*
X31065121Y-33520000D01*
X30729879Y-34280000D02*
X31065121Y-34280000D01*
%TO.C,R12*%
X32370121Y-34620000D02*
X32034879Y-34620000D01*
X32370121Y-35380000D02*
X32034879Y-35380000D01*
%TO.C,R9*%
X61620000Y-108917621D02*
X61620000Y-108582379D01*
X62380000Y-108917621D02*
X62380000Y-108582379D01*
%TO.C,R6*%
X21220000Y-60367621D02*
X21220000Y-60032379D01*
X21980000Y-60367621D02*
X21980000Y-60032379D01*
%TO.C,R3*%
X99370000Y-105582379D02*
X99370000Y-105917621D01*
X100130000Y-105582379D02*
X100130000Y-105917621D01*
%TO.C,R8*%
X71620000Y-81917621D02*
X71620000Y-81582379D01*
X72380000Y-81917621D02*
X72380000Y-81582379D01*
%TO.C,R5*%
X45370000Y-78582379D02*
X45370000Y-78917621D01*
X46130000Y-78582379D02*
X46130000Y-78917621D01*
%TO.C,U2*%
X48910000Y-82040000D02*
X48910000Y-78840000D01*
X49380000Y-78470000D02*
X48910000Y-78840000D01*
X53280000Y-78470000D02*
X49380000Y-78470000D01*
X53290000Y-82040000D02*
X48910000Y-82040000D01*
%TO.C,U1*%
X30600000Y-42865000D02*
X32800000Y-42865000D01*
X30600000Y-50935000D02*
X32800000Y-50935000D01*
X35000000Y-42865000D02*
X32800000Y-42865000D01*
X35000000Y-50935000D02*
X32800000Y-50935000D01*
X28940000Y-50475000D02*
X28610000Y-50715000D01*
X28610000Y-50235000D01*
X28940000Y-50475000D01*
G36*
X28940000Y-50475000D02*
G01*
X28610000Y-50715000D01*
X28610000Y-50235000D01*
X28940000Y-50475000D01*
G37*
%TO.C,U5*%
X18910000Y-109040000D02*
X18910000Y-105840000D01*
X19380000Y-105470000D02*
X18910000Y-105840000D01*
X23280000Y-105470000D02*
X19380000Y-105470000D01*
X23290000Y-109040000D02*
X18910000Y-109040000D01*
%TO.C,R3*%
X55370000Y-105582379D02*
X55370000Y-105917621D01*
X56130000Y-105582379D02*
X56130000Y-105917621D01*
%TO.C,C2*%
X33084165Y-51640000D02*
X33315835Y-51640000D01*
X33084165Y-52360000D02*
X33315835Y-52360000D01*
%TO.C,R2*%
X47620000Y-108917621D02*
X47620000Y-108582379D01*
X48380000Y-108917621D02*
X48380000Y-108582379D01*
%TO.C,U4*%
X72910000Y-82040000D02*
X72910000Y-78840000D01*
X73380000Y-78470000D02*
X72910000Y-78840000D01*
X77280000Y-78470000D02*
X73380000Y-78470000D01*
X77290000Y-82040000D02*
X72910000Y-82040000D01*
%TO.C,U3*%
X38910000Y-82040000D02*
X38910000Y-78840000D01*
X39380000Y-78470000D02*
X38910000Y-78840000D01*
X43280000Y-78470000D02*
X39380000Y-78470000D01*
X43290000Y-82040000D02*
X38910000Y-82040000D01*
%TO.C,R2*%
X91620000Y-108917621D02*
X91620000Y-108582379D01*
X92380000Y-108917621D02*
X92380000Y-108582379D01*
%TO.C,R5*%
X89370000Y-105582379D02*
X89370000Y-105917621D01*
X90130000Y-105582379D02*
X90130000Y-105917621D01*
%TO.C,R3*%
X99370000Y-78582379D02*
X99370000Y-78917621D01*
X100130000Y-78582379D02*
X100130000Y-78917621D01*
%TO.C,U5*%
X62910000Y-82040000D02*
X62910000Y-78840000D01*
X63380000Y-78470000D02*
X62910000Y-78840000D01*
X67280000Y-78470000D02*
X63380000Y-78470000D01*
X67290000Y-82040000D02*
X62910000Y-82040000D01*
%TO.C,R11*%
X69620000Y-105582379D02*
X69620000Y-105917621D01*
X70380000Y-105582379D02*
X70380000Y-105917621D01*
%TO.C,R8*%
X27620000Y-108917621D02*
X27620000Y-108582379D01*
X28380000Y-108917621D02*
X28380000Y-108582379D01*
%TO.C,U2*%
X92910000Y-109040000D02*
X92910000Y-105840000D01*
X93380000Y-105470000D02*
X92910000Y-105840000D01*
X97280000Y-105470000D02*
X93380000Y-105470000D01*
X97290000Y-109040000D02*
X92910000Y-109040000D01*
%TO.C,R5*%
X20120000Y-58629879D02*
X20120000Y-58965121D01*
X20880000Y-58629879D02*
X20880000Y-58965121D01*
%TO.C,U4*%
X28910000Y-109040000D02*
X28910000Y-105840000D01*
X29380000Y-105470000D02*
X28910000Y-105840000D01*
X33280000Y-105470000D02*
X29380000Y-105470000D01*
X33290000Y-109040000D02*
X28910000Y-109040000D01*
%TO.C,R4*%
X37620000Y-81917621D02*
X37620000Y-81582379D01*
X38380000Y-81917621D02*
X38380000Y-81582379D01*
%TO.C,R2*%
X47620000Y-81917621D02*
X47620000Y-81582379D01*
X48380000Y-81917621D02*
X48380000Y-81582379D01*
%TO.C,U5*%
X62910000Y-109040000D02*
X62910000Y-105840000D01*
X63380000Y-105470000D02*
X62910000Y-105840000D01*
X67280000Y-105470000D02*
X63380000Y-105470000D01*
X67290000Y-109040000D02*
X62910000Y-109040000D01*
%TO.C,R3*%
X36034879Y-57720000D02*
X36370121Y-57720000D01*
X36034879Y-58480000D02*
X36370121Y-58480000D01*
%TO.C,R9*%
X61620000Y-81917621D02*
X61620000Y-81582379D01*
X62380000Y-81917621D02*
X62380000Y-81582379D01*
%TO.C,R3*%
X55370000Y-78582379D02*
X55370000Y-78917621D01*
X56130000Y-78582379D02*
X56130000Y-78917621D01*
%TO.C,R8*%
X71620000Y-108917621D02*
X71620000Y-108582379D01*
X72380000Y-108917621D02*
X72380000Y-108582379D01*
%TO.C,U2*%
X48910000Y-109040000D02*
X48910000Y-105840000D01*
X49380000Y-105470000D02*
X48910000Y-105840000D01*
X53280000Y-105470000D02*
X49380000Y-105470000D01*
X53290000Y-109040000D02*
X48910000Y-109040000D01*
%TO.C,R10*%
X79370000Y-78582379D02*
X79370000Y-78917621D01*
X80130000Y-78582379D02*
X80130000Y-78917621D01*
%TD*%
M02*
