%TF.GenerationSoftware,KiCad,Pcbnew,8.0.2*%
%TF.CreationDate,2024-05-05T14:43:23+02:00*%
%TF.ProjectId,Panelizacja 1,50616e65-6c69-47a6-9163-6a6120312e6b,rev?*%
%TF.SameCoordinates,Original*%
%TF.FileFunction,Profile,NP*%
%FSLAX46Y46*%
G04 Gerber Fmt 4.6, Leading zero omitted, Abs format (unit mm)*
G04 Created by KiCad (PCBNEW 8.0.2) date 2024-05-05 14:43:23*
%MOMM*%
%LPD*%
G01*
G04 APERTURE LIST*
%TA.AperFunction,Profile*%
%ADD10C,0.050000*%
%TD*%
%TA.AperFunction,Profile*%
%ADD11C,0.100000*%
%TD*%
G04 APERTURE END LIST*
D10*
X50000000Y-34050000D02*
X50000000Y-26000000D01*
X50000000Y-54950000D02*
X50000000Y-38750000D01*
X50000000Y-59650000D02*
X50000000Y-64000000D01*
X94750000Y-64000000D02*
X99000000Y-64000000D01*
X69325000Y-64000000D02*
X90000000Y-64000000D01*
X56500000Y-64000000D02*
X64575000Y-64000000D01*
X50000000Y-64000000D02*
X51750000Y-64000000D01*
X88600000Y-32000000D02*
G75*
G02*
X85400000Y-32000000I-1600000J0D01*
G01*
X85400000Y-32000000D02*
G75*
G02*
X88600000Y-32000000I1600000J0D01*
G01*
X63600000Y-32000000D02*
G75*
G02*
X60400000Y-32000000I-1600000J0D01*
G01*
X60400000Y-32000000D02*
G75*
G02*
X63600000Y-32000000I1600000J0D01*
G01*
X63600000Y-58000000D02*
G75*
G02*
X60400000Y-58000000I-1600000J0D01*
G01*
X60400000Y-58000000D02*
G75*
G02*
X63600000Y-58000000I1600000J0D01*
G01*
X88600000Y-58000000D02*
G75*
G02*
X85400000Y-58000000I-1600000J0D01*
G01*
X85400000Y-58000000D02*
G75*
G02*
X88600000Y-58000000I1600000J0D01*
G01*
X50000000Y-26000000D02*
X99000000Y-26000000D01*
X99000000Y-26000000D02*
X99000000Y-64000000D01*
X58000000Y-75400000D02*
X58000000Y-82000000D01*
X93350000Y-91000000D02*
G75*
G02*
X93350000Y-93750000I0J-1375000D01*
G01*
X50000000Y-54950000D02*
G75*
G02*
X47300000Y-54950000I-1350000J0D01*
G01*
X53175000Y-91000000D02*
X58000000Y-91000000D01*
D11*
X100100000Y-71000000D02*
G75*
G02*
X96900000Y-71000000I-1600000J0D01*
G01*
X96900000Y-71000000D02*
G75*
G02*
X100100000Y-71000000I1600000J0D01*
G01*
D10*
X58000000Y-113200000D02*
X58000000Y-118000000D01*
X16000000Y-64000000D02*
X18525000Y-64000000D01*
D11*
X100100000Y-86000000D02*
G75*
G02*
X96900000Y-86000000I-1600000J0D01*
G01*
X96900000Y-86000000D02*
G75*
G02*
X100100000Y-86000000I1600000J0D01*
G01*
D10*
X70150000Y-93750000D02*
X93350000Y-93750000D01*
X47300000Y-38750000D02*
X47300000Y-54950000D01*
D11*
X21100000Y-71000000D02*
G75*
G02*
X17900000Y-71000000I-1600000J0D01*
G01*
X17900000Y-71000000D02*
G75*
G02*
X21100000Y-71000000I1600000J0D01*
G01*
D10*
X43875000Y-66750000D02*
X51750000Y-66750000D01*
X47300000Y-59650000D02*
X47300000Y-64000000D01*
X65400000Y-93750000D02*
X60000000Y-93750000D01*
X58000000Y-118000000D02*
X16000000Y-118000000D01*
X94750000Y-66750000D02*
G75*
G02*
X94750000Y-64000000I0J1375000D01*
G01*
D11*
X21100000Y-98000000D02*
G75*
G02*
X17900000Y-98000000I-1600000J0D01*
G01*
X17900000Y-98000000D02*
G75*
G02*
X21100000Y-98000000I1600000J0D01*
G01*
D10*
X48425000Y-93750000D02*
X25225000Y-93750000D01*
X60000000Y-109200000D02*
G75*
G02*
X58000000Y-109200000I-1000000J0D01*
G01*
X20475000Y-93750000D02*
X16000000Y-93750000D01*
X18525000Y-66750000D02*
X16000000Y-66750000D01*
X60000000Y-113200000D02*
X60000000Y-118000000D01*
X58000000Y-113200000D02*
G75*
G02*
X60000000Y-113200000I1000000J0D01*
G01*
X90000000Y-66750000D02*
X69325000Y-66750000D01*
X43875000Y-64000000D02*
X47300000Y-64000000D01*
X58000000Y-66750000D02*
X58000000Y-71400000D01*
X60000000Y-71400000D02*
G75*
G02*
X58000000Y-71400000I-1000000J0D01*
G01*
X60000000Y-82000000D02*
G75*
G02*
X58000000Y-82000000I-1000000J0D01*
G01*
D11*
X65100000Y-71000000D02*
G75*
G02*
X61900000Y-71000000I-1600000J0D01*
G01*
X61900000Y-71000000D02*
G75*
G02*
X65100000Y-71000000I1600000J0D01*
G01*
X16000000Y-30000000D02*
X47300000Y-30000000D01*
X56100000Y-98000000D02*
G75*
G02*
X52900000Y-98000000I-1600000J0D01*
G01*
X52900000Y-98000000D02*
G75*
G02*
X56100000Y-98000000I1600000J0D01*
G01*
D10*
X23275000Y-66750000D02*
G75*
G02*
X23275000Y-64000000I0J1375000D01*
G01*
X58000000Y-93750000D02*
X53175000Y-93750000D01*
D11*
X65100000Y-113000000D02*
G75*
G02*
X61900000Y-113000000I-1600000J0D01*
G01*
X61900000Y-113000000D02*
G75*
G02*
X65100000Y-113000000I1600000J0D01*
G01*
D10*
X58000000Y-101900000D02*
X58000000Y-109200000D01*
D11*
X100100000Y-113000000D02*
G75*
G02*
X96900000Y-113000000I-1600000J0D01*
G01*
X96900000Y-113000000D02*
G75*
G02*
X100100000Y-113000000I1600000J0D01*
G01*
D10*
X47300000Y-59650000D02*
G75*
G02*
X50000000Y-59650000I1350000J0D01*
G01*
D11*
X21100000Y-113000000D02*
G75*
G02*
X17900000Y-113000000I-1600000J0D01*
G01*
X17900000Y-113000000D02*
G75*
G02*
X21100000Y-113000000I1600000J0D01*
G01*
X65100000Y-86000000D02*
G75*
G02*
X61900000Y-86000000I-1600000J0D01*
G01*
X61900000Y-86000000D02*
G75*
G02*
X65100000Y-86000000I1600000J0D01*
G01*
D10*
X25225000Y-93750000D02*
G75*
G02*
X25225000Y-91000000I0J1375000D01*
G01*
X65400000Y-91000000D02*
G75*
G02*
X65400000Y-93750000I0J-1375000D01*
G01*
D11*
X16000000Y-30000000D02*
X16000000Y-64000000D01*
D10*
X60000000Y-101900000D02*
X60000000Y-109200000D01*
X64575000Y-64000000D02*
G75*
G02*
X64575000Y-66750000I0J-1375000D01*
G01*
X60000000Y-93750000D02*
X60000000Y-97900000D01*
X51750000Y-64000000D02*
G75*
G02*
X51750000Y-66750000I0J-1375000D01*
G01*
X47300000Y-38750000D02*
G75*
G02*
X50000000Y-38750000I1350000J0D01*
G01*
X53175000Y-93750000D02*
G75*
G02*
X53175000Y-91000000I0J1375000D01*
G01*
X25225000Y-91000000D02*
X48425000Y-91000000D01*
D11*
X100100000Y-98000000D02*
G75*
G02*
X96900000Y-98000000I-1600000J0D01*
G01*
X96900000Y-98000000D02*
G75*
G02*
X100100000Y-98000000I1600000J0D01*
G01*
D10*
X23275000Y-64000000D02*
X39125000Y-64000000D01*
X16000000Y-118000000D02*
X16000000Y-93750000D01*
X65400000Y-91000000D02*
X60000000Y-91000000D01*
D11*
X56100000Y-113000000D02*
G75*
G02*
X52900000Y-113000000I-1600000J0D01*
G01*
X52900000Y-113000000D02*
G75*
G02*
X56100000Y-113000000I1600000J0D01*
G01*
D10*
X102000000Y-66750000D02*
X102000000Y-91000000D01*
X60000000Y-97900000D02*
G75*
G02*
X58000000Y-97900000I-1000000J0D01*
G01*
X39125000Y-64000000D02*
G75*
G02*
X39125000Y-66750000I0J-1375000D01*
G01*
X58000000Y-101900000D02*
G75*
G02*
X60000000Y-101900000I1000000J0D01*
G01*
X20475000Y-91000000D02*
G75*
G02*
X20475000Y-93750000I0J-1375000D01*
G01*
X23275000Y-66750000D02*
X39125000Y-66750000D01*
X48425000Y-91000000D02*
G75*
G02*
X48425000Y-93750000I0J-1375000D01*
G01*
X58000000Y-86000000D02*
X58000000Y-91000000D01*
X70150000Y-91000000D02*
X93350000Y-91000000D01*
X58000000Y-93750000D02*
X58000000Y-97900000D01*
X90000000Y-64000000D02*
G75*
G02*
X90000000Y-66750000I0J-1375000D01*
G01*
D11*
X21100000Y-86000000D02*
G75*
G02*
X17900000Y-86000000I-1600000J0D01*
G01*
X17900000Y-86000000D02*
G75*
G02*
X21100000Y-86000000I1600000J0D01*
G01*
D10*
X58000000Y-86000000D02*
G75*
G02*
X60000000Y-86000000I1000000J0D01*
G01*
X98100000Y-93750000D02*
G75*
G02*
X98100000Y-91000000I0J1375000D01*
G01*
X102000000Y-93750000D02*
X102000000Y-118000000D01*
D11*
X65100000Y-98000000D02*
G75*
G02*
X61900000Y-98000000I-1600000J0D01*
G01*
X61900000Y-98000000D02*
G75*
G02*
X65100000Y-98000000I1600000J0D01*
G01*
D10*
X98100000Y-91000000D02*
X102000000Y-91000000D01*
X64575000Y-66750000D02*
X60000000Y-66750000D01*
X16000000Y-91000000D02*
X16000000Y-66750000D01*
X43875000Y-66750000D02*
G75*
G02*
X43875000Y-64000000I0J1375000D01*
G01*
X56500000Y-66750000D02*
G75*
G02*
X56500000Y-64000000I0J1375000D01*
G01*
X69325000Y-66750000D02*
G75*
G02*
X69325000Y-64000000I0J1375000D01*
G01*
X58000000Y-75400000D02*
G75*
G02*
X60000000Y-75400000I1000000J0D01*
G01*
X18525000Y-64000000D02*
G75*
G02*
X18525000Y-66750000I0J-1375000D01*
G01*
X70150000Y-93750000D02*
G75*
G02*
X70150000Y-91000000I0J1375000D01*
G01*
X98100000Y-93750000D02*
X102000000Y-93750000D01*
X60000000Y-75400000D02*
X60000000Y-82000000D01*
X50000000Y-34050000D02*
G75*
G02*
X47300000Y-34050000I-1350000J0D01*
G01*
X47300000Y-34050000D02*
X47300000Y-30000000D01*
D11*
X56100000Y-71000000D02*
G75*
G02*
X52900000Y-71000000I-1600000J0D01*
G01*
X52900000Y-71000000D02*
G75*
G02*
X56100000Y-71000000I1600000J0D01*
G01*
D10*
X60000000Y-86000000D02*
X60000000Y-91000000D01*
D11*
X56100000Y-86000000D02*
G75*
G02*
X52900000Y-86000000I-1600000J0D01*
G01*
X52900000Y-86000000D02*
G75*
G02*
X56100000Y-86000000I1600000J0D01*
G01*
D10*
X102000000Y-66750000D02*
X94750000Y-66750000D01*
X102000000Y-118000000D02*
X60000000Y-118000000D01*
D11*
X20900000Y-47100000D02*
G75*
G02*
X17700000Y-47100000I-1600000J0D01*
G01*
X17700000Y-47100000D02*
G75*
G02*
X20900000Y-47100000I1600000J0D01*
G01*
D10*
X58000000Y-66750000D02*
X56500000Y-66750000D01*
X60000000Y-66750000D02*
X60000000Y-71400000D01*
X20475000Y-91000000D02*
X16000000Y-91000000D01*
M02*
