%TF.GenerationSoftware,KiCad,Pcbnew,7.0.8*%
%TF.CreationDate,2024-04-25T12:22:59+02:00*%
%TF.ProjectId,Sterowniki silnik_w,53746572-6f77-46e6-996b-692073696c6e,rev?*%
%TF.SameCoordinates,Original*%
%TF.FileFunction,Legend,Bot*%
%TF.FilePolarity,Positive*%
%FSLAX46Y46*%
G04 Gerber Fmt 4.6, Leading zero omitted, Abs format (unit mm)*
G04 Created by KiCad (PCBNEW 7.0.8) date 2024-04-25 12:22:59*
%MOMM*%
%LPD*%
G01*
G04 APERTURE LIST*
%ADD10C,0.150000*%
%ADD11C,0.120000*%
G04 APERTURE END LIST*
D10*
X43583333Y-25599819D02*
X43583333Y-26314104D01*
X43583333Y-26314104D02*
X43630952Y-26456961D01*
X43630952Y-26456961D02*
X43726190Y-26552200D01*
X43726190Y-26552200D02*
X43869047Y-26599819D01*
X43869047Y-26599819D02*
X43964285Y-26599819D01*
X42583333Y-26599819D02*
X43154761Y-26599819D01*
X42869047Y-26599819D02*
X42869047Y-25599819D01*
X42869047Y-25599819D02*
X42964285Y-25742676D01*
X42964285Y-25742676D02*
X43059523Y-25837914D01*
X43059523Y-25837914D02*
X43154761Y-25885533D01*
X59833333Y-35324819D02*
X59833333Y-36039104D01*
X59833333Y-36039104D02*
X59880952Y-36181961D01*
X59880952Y-36181961D02*
X59976190Y-36277200D01*
X59976190Y-36277200D02*
X60119047Y-36324819D01*
X60119047Y-36324819D02*
X60214285Y-36324819D01*
X59404761Y-35420057D02*
X59357142Y-35372438D01*
X59357142Y-35372438D02*
X59261904Y-35324819D01*
X59261904Y-35324819D02*
X59023809Y-35324819D01*
X59023809Y-35324819D02*
X58928571Y-35372438D01*
X58928571Y-35372438D02*
X58880952Y-35420057D01*
X58880952Y-35420057D02*
X58833333Y-35515295D01*
X58833333Y-35515295D02*
X58833333Y-35610533D01*
X58833333Y-35610533D02*
X58880952Y-35753390D01*
X58880952Y-35753390D02*
X59452380Y-36324819D01*
X59452380Y-36324819D02*
X58833333Y-36324819D01*
D11*
%TO.C,J1*%
X44580000Y-34885000D02*
X41920000Y-34885000D01*
X44580000Y-29745000D02*
X44580000Y-34885000D01*
X44580000Y-29745000D02*
X41920000Y-29745000D01*
X44580000Y-28475000D02*
X44580000Y-27145000D01*
X44580000Y-27145000D02*
X43250000Y-27145000D01*
X41920000Y-29745000D02*
X41920000Y-34885000D01*
%TO.C,J2*%
X58170000Y-27130000D02*
X60830000Y-27130000D01*
X58170000Y-32270000D02*
X58170000Y-27130000D01*
X58170000Y-32270000D02*
X60830000Y-32270000D01*
X58170000Y-33540000D02*
X58170000Y-34870000D01*
X58170000Y-34870000D02*
X59500000Y-34870000D01*
X60830000Y-32270000D02*
X60830000Y-27130000D01*
%TD*%
M02*
