%TF.GenerationSoftware,KiCad,Pcbnew,7.0.8*%
%TF.CreationDate,2024-04-25T12:22:59+02:00*%
%TF.ProjectId,Sterowniki silnik_w,53746572-6f77-46e6-996b-692073696c6e,rev?*%
%TF.SameCoordinates,Original*%
%TF.FileFunction,Legend,Top*%
%TF.FilePolarity,Positive*%
%FSLAX46Y46*%
G04 Gerber Fmt 4.6, Leading zero omitted, Abs format (unit mm)*
G04 Created by KiCad (PCBNEW 7.0.8) date 2024-04-25 12:22:59*
%MOMM*%
%LPD*%
G01*
G04 APERTURE LIST*
%ADD10C,0.150000*%
%ADD11C,0.254000*%
%ADD12C,0.120000*%
%ADD13C,0.200000*%
G04 APERTURE END LIST*
D10*
X55024819Y-33166666D02*
X54548628Y-33499999D01*
X55024819Y-33738094D02*
X54024819Y-33738094D01*
X54024819Y-33738094D02*
X54024819Y-33357142D01*
X54024819Y-33357142D02*
X54072438Y-33261904D01*
X54072438Y-33261904D02*
X54120057Y-33214285D01*
X54120057Y-33214285D02*
X54215295Y-33166666D01*
X54215295Y-33166666D02*
X54358152Y-33166666D01*
X54358152Y-33166666D02*
X54453390Y-33214285D01*
X54453390Y-33214285D02*
X54501009Y-33261904D01*
X54501009Y-33261904D02*
X54548628Y-33357142D01*
X54548628Y-33357142D02*
X54548628Y-33738094D01*
X54120057Y-32785713D02*
X54072438Y-32738094D01*
X54072438Y-32738094D02*
X54024819Y-32642856D01*
X54024819Y-32642856D02*
X54024819Y-32404761D01*
X54024819Y-32404761D02*
X54072438Y-32309523D01*
X54072438Y-32309523D02*
X54120057Y-32261904D01*
X54120057Y-32261904D02*
X54215295Y-32214285D01*
X54215295Y-32214285D02*
X54310533Y-32214285D01*
X54310533Y-32214285D02*
X54453390Y-32261904D01*
X54453390Y-32261904D02*
X55024819Y-32833332D01*
X55024819Y-32833332D02*
X55024819Y-32214285D01*
X52024819Y-33738094D02*
X51024819Y-33738094D01*
X51024819Y-33738094D02*
X51024819Y-33499999D01*
X51024819Y-33499999D02*
X51072438Y-33357142D01*
X51072438Y-33357142D02*
X51167676Y-33261904D01*
X51167676Y-33261904D02*
X51262914Y-33214285D01*
X51262914Y-33214285D02*
X51453390Y-33166666D01*
X51453390Y-33166666D02*
X51596247Y-33166666D01*
X51596247Y-33166666D02*
X51786723Y-33214285D01*
X51786723Y-33214285D02*
X51881961Y-33261904D01*
X51881961Y-33261904D02*
X51977200Y-33357142D01*
X51977200Y-33357142D02*
X52024819Y-33499999D01*
X52024819Y-33499999D02*
X52024819Y-33738094D01*
X51120057Y-32785713D02*
X51072438Y-32738094D01*
X51072438Y-32738094D02*
X51024819Y-32642856D01*
X51024819Y-32642856D02*
X51024819Y-32404761D01*
X51024819Y-32404761D02*
X51072438Y-32309523D01*
X51072438Y-32309523D02*
X51120057Y-32261904D01*
X51120057Y-32261904D02*
X51215295Y-32214285D01*
X51215295Y-32214285D02*
X51310533Y-32214285D01*
X51310533Y-32214285D02*
X51453390Y-32261904D01*
X51453390Y-32261904D02*
X52024819Y-32833332D01*
X52024819Y-32833332D02*
X52024819Y-32214285D01*
X57884819Y-30738094D02*
X56884819Y-30738094D01*
X56884819Y-30738094D02*
X56884819Y-30499999D01*
X56884819Y-30499999D02*
X56932438Y-30357142D01*
X56932438Y-30357142D02*
X57027676Y-30261904D01*
X57027676Y-30261904D02*
X57122914Y-30214285D01*
X57122914Y-30214285D02*
X57313390Y-30166666D01*
X57313390Y-30166666D02*
X57456247Y-30166666D01*
X57456247Y-30166666D02*
X57646723Y-30214285D01*
X57646723Y-30214285D02*
X57741961Y-30261904D01*
X57741961Y-30261904D02*
X57837200Y-30357142D01*
X57837200Y-30357142D02*
X57884819Y-30499999D01*
X57884819Y-30499999D02*
X57884819Y-30738094D01*
X57884819Y-29214285D02*
X57884819Y-29785713D01*
X57884819Y-29499999D02*
X56884819Y-29499999D01*
X56884819Y-29499999D02*
X57027676Y-29595237D01*
X57027676Y-29595237D02*
X57122914Y-29690475D01*
X57122914Y-29690475D02*
X57170533Y-29785713D01*
X50539580Y-31916666D02*
X50587200Y-31964285D01*
X50587200Y-31964285D02*
X50634819Y-32107142D01*
X50634819Y-32107142D02*
X50634819Y-32202380D01*
X50634819Y-32202380D02*
X50587200Y-32345237D01*
X50587200Y-32345237D02*
X50491961Y-32440475D01*
X50491961Y-32440475D02*
X50396723Y-32488094D01*
X50396723Y-32488094D02*
X50206247Y-32535713D01*
X50206247Y-32535713D02*
X50063390Y-32535713D01*
X50063390Y-32535713D02*
X49872914Y-32488094D01*
X49872914Y-32488094D02*
X49777676Y-32440475D01*
X49777676Y-32440475D02*
X49682438Y-32345237D01*
X49682438Y-32345237D02*
X49634819Y-32202380D01*
X49634819Y-32202380D02*
X49634819Y-32107142D01*
X49634819Y-32107142D02*
X49682438Y-31964285D01*
X49682438Y-31964285D02*
X49730057Y-31916666D01*
X50634819Y-30964285D02*
X50634819Y-31535713D01*
X50634819Y-31249999D02*
X49634819Y-31249999D01*
X49634819Y-31249999D02*
X49777676Y-31345237D01*
X49777676Y-31345237D02*
X49872914Y-31440475D01*
X49872914Y-31440475D02*
X49920533Y-31535713D01*
X54884819Y-30166666D02*
X54408628Y-30499999D01*
X54884819Y-30738094D02*
X53884819Y-30738094D01*
X53884819Y-30738094D02*
X53884819Y-30357142D01*
X53884819Y-30357142D02*
X53932438Y-30261904D01*
X53932438Y-30261904D02*
X53980057Y-30214285D01*
X53980057Y-30214285D02*
X54075295Y-30166666D01*
X54075295Y-30166666D02*
X54218152Y-30166666D01*
X54218152Y-30166666D02*
X54313390Y-30214285D01*
X54313390Y-30214285D02*
X54361009Y-30261904D01*
X54361009Y-30261904D02*
X54408628Y-30357142D01*
X54408628Y-30357142D02*
X54408628Y-30738094D01*
X54884819Y-29214285D02*
X54884819Y-29785713D01*
X54884819Y-29499999D02*
X53884819Y-29499999D01*
X53884819Y-29499999D02*
X54027676Y-29595237D01*
X54027676Y-29595237D02*
X54122914Y-29690475D01*
X54122914Y-29690475D02*
X54170533Y-29785713D01*
D11*
X45260237Y-29835118D02*
X45260237Y-28565118D01*
X46590714Y-29714165D02*
X46530238Y-29774642D01*
X46530238Y-29774642D02*
X46348809Y-29835118D01*
X46348809Y-29835118D02*
X46227857Y-29835118D01*
X46227857Y-29835118D02*
X46046428Y-29774642D01*
X46046428Y-29774642D02*
X45925476Y-29653689D01*
X45925476Y-29653689D02*
X45864999Y-29532737D01*
X45864999Y-29532737D02*
X45804523Y-29290832D01*
X45804523Y-29290832D02*
X45804523Y-29109403D01*
X45804523Y-29109403D02*
X45864999Y-28867499D01*
X45864999Y-28867499D02*
X45925476Y-28746546D01*
X45925476Y-28746546D02*
X46046428Y-28625594D01*
X46046428Y-28625594D02*
X46227857Y-28565118D01*
X46227857Y-28565118D02*
X46348809Y-28565118D01*
X46348809Y-28565118D02*
X46530238Y-28625594D01*
X46530238Y-28625594D02*
X46590714Y-28686070D01*
X47800238Y-29835118D02*
X47074523Y-29835118D01*
X47437380Y-29835118D02*
X47437380Y-28565118D01*
X47437380Y-28565118D02*
X47316428Y-28746546D01*
X47316428Y-28746546D02*
X47195476Y-28867499D01*
X47195476Y-28867499D02*
X47074523Y-28927975D01*
D12*
%TO.C,R2*%
X55477500Y-33237258D02*
X55477500Y-32762742D01*
X56522500Y-33237258D02*
X56522500Y-32762742D01*
%TO.C,D2*%
X52265000Y-34485000D02*
X53735000Y-34485000D01*
X53735000Y-34485000D02*
X53735000Y-32200000D01*
X52265000Y-32200000D02*
X52265000Y-34485000D01*
%TO.C,D1*%
X56735000Y-28515000D02*
X55265000Y-28515000D01*
X55265000Y-28515000D02*
X55265000Y-30800000D01*
X56735000Y-30800000D02*
X56735000Y-28515000D01*
%TO.C,C1*%
X49260000Y-31609420D02*
X49260000Y-31890580D01*
X48240000Y-31609420D02*
X48240000Y-31890580D01*
%TO.C,R1*%
X53522500Y-29762742D02*
X53522500Y-30237258D01*
X52477500Y-29762742D02*
X52477500Y-30237258D01*
D13*
%TO.C,IC1*%
X46750000Y-31800000D02*
X46250000Y-31800000D01*
X46750000Y-30200000D02*
X46750000Y-31800000D01*
X46250000Y-31800000D02*
X46250000Y-30200000D01*
X46250000Y-30200000D02*
X46750000Y-30200000D01*
X45425000Y-30100000D02*
X45900000Y-30100000D01*
%TD*%
M02*
