%TF.GenerationSoftware,KiCad,Pcbnew,8.0.2*%
%TF.CreationDate,2024-05-05T14:46:41+02:00*%
%TF.ProjectId,Panelizacja,50616e65-6c69-47a6-9163-6a612e6b6963,rev?*%
%TF.SameCoordinates,Original*%
%TF.FileFunction,Soldermask,Top*%
%TF.FilePolarity,Negative*%
%FSLAX46Y46*%
G04 Gerber Fmt 4.6, Leading zero omitted, Abs format (unit mm)*
G04 Created by KiCad (PCBNEW 8.0.2) date 2024-05-05 14:46:41*
%MOMM*%
%LPD*%
G01*
G04 APERTURE LIST*
G04 Aperture macros list*
%AMRoundRect*
0 Rectangle with rounded corners*
0 $1 Rounding radius*
0 $2 $3 $4 $5 $6 $7 $8 $9 X,Y pos of 4 corners*
0 Add a 4 corners polygon primitive as box body*
4,1,4,$2,$3,$4,$5,$6,$7,$8,$9,$2,$3,0*
0 Add four circle primitives for the rounded corners*
1,1,$1+$1,$2,$3*
1,1,$1+$1,$4,$5*
1,1,$1+$1,$6,$7*
1,1,$1+$1,$8,$9*
0 Add four rect primitives between the rounded corners*
20,1,$1+$1,$2,$3,$4,$5,0*
20,1,$1+$1,$4,$5,$6,$7,0*
20,1,$1+$1,$6,$7,$8,$9,0*
20,1,$1+$1,$8,$9,$2,$3,0*%
G04 Aperture macros list end*
%ADD10RoundRect,0.250000X0.475000X-0.250000X0.475000X0.250000X-0.475000X0.250000X-0.475000X-0.250000X0*%
%ADD11RoundRect,0.155000X0.155000X-0.212500X0.155000X0.212500X-0.155000X0.212500X-0.155000X-0.212500X0*%
%ADD12RoundRect,0.160000X0.197500X0.160000X-0.197500X0.160000X-0.197500X-0.160000X0.197500X-0.160000X0*%
%ADD13RoundRect,0.160000X-0.197500X-0.160000X0.197500X-0.160000X0.197500X0.160000X-0.197500X0.160000X0*%
%ADD14RoundRect,0.147500X-0.147500X-0.172500X0.147500X-0.172500X0.147500X0.172500X-0.147500X0.172500X0*%
%ADD15C,1.800000*%
%ADD16RoundRect,0.147500X0.172500X-0.147500X0.172500X0.147500X-0.172500X0.147500X-0.172500X-0.147500X0*%
%ADD17RoundRect,0.160000X0.160000X-0.197500X0.160000X0.197500X-0.160000X0.197500X-0.160000X-0.197500X0*%
%ADD18R,1.700000X1.700000*%
%ADD19O,1.700000X1.700000*%
%ADD20RoundRect,0.250000X-0.250000X-0.475000X0.250000X-0.475000X0.250000X0.475000X-0.250000X0.475000X0*%
%ADD21R,0.600000X1.250000*%
%ADD22C,2.000000*%
%ADD23RoundRect,0.155000X-0.155000X0.212500X-0.155000X-0.212500X0.155000X-0.212500X0.155000X0.212500X0*%
%ADD24R,1.000000X0.750000*%
%ADD25RoundRect,0.160000X0.222500X0.160000X-0.222500X0.160000X-0.222500X-0.160000X0.222500X-0.160000X0*%
%ADD26RoundRect,0.160000X-0.222500X-0.160000X0.222500X-0.160000X0.222500X0.160000X-0.222500X0.160000X0*%
%ADD27RoundRect,0.200000X-0.200000X-0.275000X0.200000X-0.275000X0.200000X0.275000X-0.200000X0.275000X0*%
%ADD28RoundRect,0.160000X-0.160000X0.197500X-0.160000X-0.197500X0.160000X-0.197500X0.160000X0.197500X0*%
%ADD29RoundRect,0.225000X-0.225000X-0.250000X0.225000X-0.250000X0.225000X0.250000X-0.225000X0.250000X0*%
%ADD30RoundRect,0.200000X0.275000X-0.200000X0.275000X0.200000X-0.275000X0.200000X-0.275000X-0.200000X0*%
%ADD31RoundRect,0.225000X-0.250000X0.225000X-0.250000X-0.225000X0.250000X-0.225000X0.250000X0.225000X0*%
%ADD32R,2.950000X3.500000*%
%ADD33RoundRect,0.200000X0.200000X0.275000X-0.200000X0.275000X-0.200000X-0.275000X0.200000X-0.275000X0*%
%ADD34RoundRect,0.147500X0.147500X0.172500X-0.147500X0.172500X-0.147500X-0.172500X0.147500X-0.172500X0*%
%ADD35R,1.800000X2.250000*%
%ADD36RoundRect,0.150000X0.675000X0.150000X-0.675000X0.150000X-0.675000X-0.150000X0.675000X-0.150000X0*%
%ADD37R,0.300000X0.475000*%
%ADD38R,0.400000X1.350000*%
%ADD39O,0.900000X1.550000*%
%ADD40R,1.200000X1.550000*%
%ADD41O,1.250000X0.950000*%
%ADD42R,1.500000X1.550000*%
%ADD43R,1.500000X0.900000*%
%ADD44R,0.900000X1.500000*%
%ADD45R,0.900000X0.900000*%
%ADD46RoundRect,0.250000X-0.600000X-0.725000X0.600000X-0.725000X0.600000X0.725000X-0.600000X0.725000X0*%
%ADD47O,1.700000X1.950000*%
G04 APERTURE END LIST*
D10*
%TO.C,C5*%
X54007121Y-85742878D03*
X54007121Y-83842878D03*
%TD*%
D11*
%TO.C,C11*%
X85007121Y-105160378D03*
X85007121Y-104025378D03*
%TD*%
D12*
%TO.C,R1*%
X32797500Y-51000000D03*
X31602500Y-51000000D03*
%TD*%
%TO.C,R8*%
X50107121Y-106192878D03*
X48912121Y-106192878D03*
%TD*%
D13*
%TO.C,R2*%
X99318500Y-72384000D03*
X100513500Y-72384000D03*
%TD*%
D14*
%TO.C,D2*%
X17217121Y-82892878D03*
X18187121Y-82892878D03*
%TD*%
D15*
%TO.C,J12*%
X39507121Y-66692878D03*
X44507121Y-66692878D03*
%TD*%
D12*
%TO.C,R1*%
X103561500Y-103448000D03*
X102366500Y-103448000D03*
%TD*%
D16*
%TO.C,D4*%
X58457121Y-85777878D03*
X58457121Y-84807878D03*
%TD*%
D17*
%TO.C,R24*%
X22507121Y-108492878D03*
X22507121Y-107297878D03*
%TD*%
D18*
%TO.C,J2*%
X72882121Y-115792878D03*
D19*
X72882121Y-113252878D03*
X72882121Y-110712878D03*
X72882121Y-108172878D03*
X72882121Y-105632878D03*
X72882121Y-103092878D03*
X72882121Y-100552878D03*
X72882121Y-98012878D03*
X72882121Y-95472878D03*
X72882121Y-92932878D03*
X72882121Y-90392878D03*
X72882121Y-87852878D03*
X72882121Y-85312878D03*
X72882121Y-82772878D03*
%TD*%
D12*
%TO.C,R1*%
X103561500Y-76448000D03*
X102366500Y-76448000D03*
%TD*%
D20*
%TO.C,C6*%
X47582121Y-85392878D03*
X49482121Y-85392878D03*
%TD*%
D21*
%TO.C,IC1*%
X49482121Y-92742878D03*
X48532121Y-92742878D03*
X47582121Y-92742878D03*
X47582121Y-95242878D03*
X48532121Y-95242878D03*
X49482121Y-95242878D03*
%TD*%
D22*
%TO.C,SW4*%
X82757121Y-116042878D03*
X76257121Y-116042878D03*
X82757121Y-111542878D03*
X76257121Y-111542878D03*
%TD*%
D17*
%TO.C,R26*%
X86607121Y-113690378D03*
X86607121Y-112495378D03*
%TD*%
D13*
%TO.C,R2*%
X42352500Y-50750000D03*
X43547500Y-50750000D03*
%TD*%
%TO.C,R2*%
X99318500Y-99384000D03*
X100513500Y-99384000D03*
%TD*%
D23*
%TO.C,C12*%
X85107121Y-114825378D03*
X85107121Y-115960378D03*
%TD*%
D11*
%TO.C,C1*%
X24200000Y-31567500D03*
X24200000Y-30432500D03*
%TD*%
D18*
%TO.C,J3*%
X31107121Y-98692878D03*
D19*
X28567121Y-98692878D03*
X26027121Y-98692878D03*
%TD*%
D18*
%TO.C,J9*%
X36387121Y-74092878D03*
D19*
X33847121Y-74092878D03*
X31307121Y-74092878D03*
%TD*%
D14*
%TO.C,D8*%
X17307121Y-70692878D03*
X18277121Y-70692878D03*
%TD*%
D13*
%TO.C,R9*%
X46912121Y-116892878D03*
X48107121Y-116892878D03*
%TD*%
D17*
%TO.C,R1*%
X70507121Y-79487878D03*
X70507121Y-78292878D03*
%TD*%
D24*
%TO.C,SW2*%
X49450000Y-56125000D03*
X43450000Y-56125000D03*
X49450000Y-52375000D03*
X43450000Y-52375000D03*
%TD*%
D13*
%TO.C,R3*%
X51409621Y-69992878D03*
X52604621Y-69992878D03*
%TD*%
D25*
%TO.C,D1*%
X103536500Y-72384000D03*
X102391500Y-72384000D03*
%TD*%
D26*
%TO.C,D2*%
X99343500Y-76448000D03*
X100488500Y-76448000D03*
%TD*%
D18*
%TO.C,J11*%
X84732121Y-65992878D03*
D19*
X84732121Y-68532878D03*
X84732121Y-71072878D03*
X84732121Y-73612878D03*
%TD*%
D27*
%TO.C,R11*%
X47582121Y-100642878D03*
X49232121Y-100642878D03*
%TD*%
D13*
%TO.C,R4*%
X51409621Y-71092878D03*
X52604621Y-71092878D03*
%TD*%
D24*
%TO.C,SW1*%
X29950000Y-56125000D03*
X23950000Y-56125000D03*
X29950000Y-52375000D03*
X23950000Y-52375000D03*
%TD*%
D11*
%TO.C,C2*%
X25450000Y-31567500D03*
X25450000Y-30432500D03*
%TD*%
D25*
%TO.C,D1*%
X103536500Y-99384000D03*
X102391500Y-99384000D03*
%TD*%
D22*
%TO.C,SW3*%
X76257121Y-103992878D03*
X82757121Y-103992878D03*
X76257121Y-108492878D03*
X82757121Y-108492878D03*
%TD*%
D14*
%TO.C,D6*%
X17304621Y-76692878D03*
X18274621Y-76692878D03*
%TD*%
D12*
%TO.C,R7*%
X50104621Y-104992878D03*
X48909621Y-104992878D03*
%TD*%
D18*
%TO.C,J5*%
X81807121Y-78492878D03*
D19*
X79267121Y-78492878D03*
X76727121Y-78492878D03*
%TD*%
D28*
%TO.C,R21*%
X19507121Y-114895378D03*
X19507121Y-116090378D03*
%TD*%
D14*
%TO.C,D1*%
X44924621Y-116892878D03*
X45894621Y-116892878D03*
%TD*%
D18*
%TO.C,J6*%
X81807121Y-98812878D03*
D19*
X79267121Y-98812878D03*
X76727121Y-98812878D03*
%TD*%
D14*
%TO.C,D5*%
X17239621Y-79692878D03*
X18209621Y-79692878D03*
%TD*%
D29*
%TO.C,C8*%
X47782121Y-89292878D03*
X49332121Y-89292878D03*
%TD*%
D18*
%TO.C,J1*%
X34782121Y-82772878D03*
D19*
X34782121Y-85312878D03*
X34782121Y-87852878D03*
X34782121Y-90392878D03*
X34782121Y-92932878D03*
X34782121Y-95472878D03*
X34782121Y-98012878D03*
X34782121Y-100552878D03*
X34782121Y-103092878D03*
X34782121Y-105632878D03*
X34782121Y-108172878D03*
X34782121Y-110712878D03*
X34782121Y-113252878D03*
X34782121Y-115792878D03*
%TD*%
D18*
%TO.C,J4*%
X31107121Y-78372878D03*
D19*
X28567121Y-78372878D03*
X26027121Y-78372878D03*
%TD*%
D20*
%TO.C,C7*%
X47582121Y-87492878D03*
X49482121Y-87492878D03*
%TD*%
D11*
%TO.C,C10*%
X22507121Y-112660378D03*
X22507121Y-111525378D03*
%TD*%
D30*
%TO.C,R10*%
X45182121Y-94617878D03*
X45182121Y-92967878D03*
%TD*%
D17*
%TO.C,R5*%
X81107121Y-67190378D03*
X81107121Y-65995378D03*
%TD*%
D28*
%TO.C,R27*%
X85107121Y-112495378D03*
X85107121Y-113690378D03*
%TD*%
D12*
%TO.C,R18*%
X20502121Y-73692878D03*
X19307121Y-73692878D03*
%TD*%
D31*
%TO.C,C3*%
X51257121Y-95217878D03*
X51257121Y-96767878D03*
%TD*%
D32*
%TO.C,L1*%
X54007121Y-79392878D03*
X48557121Y-79392878D03*
%TD*%
D33*
%TO.C,R12*%
X49232121Y-99042878D03*
X47582121Y-99042878D03*
%TD*%
D34*
%TO.C,D3*%
X44182121Y-73092878D03*
X43212121Y-73092878D03*
%TD*%
D17*
%TO.C,R6*%
X81107121Y-69690378D03*
X81107121Y-68495378D03*
%TD*%
D35*
%TO.C,C1*%
X100777400Y-107512000D03*
X103677400Y-107512000D03*
%TD*%
D23*
%TO.C,C3*%
X20900000Y-53732500D03*
X20900000Y-54867500D03*
%TD*%
D18*
%TO.C,J10*%
X33847121Y-70392878D03*
D19*
X31307121Y-70392878D03*
X28767121Y-70392878D03*
%TD*%
D11*
%TO.C,C9*%
X22507121Y-105060378D03*
X22507121Y-103925378D03*
%TD*%
D36*
%TO.C,U1*%
X57132121Y-107497878D03*
X57132121Y-106227878D03*
X57132121Y-104957878D03*
X57132121Y-103687878D03*
X51882121Y-103687878D03*
X51882121Y-104957878D03*
X51882121Y-106227878D03*
X51882121Y-107497878D03*
%TD*%
D26*
%TO.C,D2*%
X99343500Y-103448000D03*
X100488500Y-103448000D03*
%TD*%
D12*
%TO.C,R19*%
X20502121Y-70692878D03*
X19307121Y-70692878D03*
%TD*%
D22*
%TO.C,SW2*%
X24907121Y-111542878D03*
X31407121Y-111542878D03*
X24907121Y-116042878D03*
X31407121Y-116042878D03*
%TD*%
D37*
%TO.C,IC1*%
X100250600Y-84906000D03*
X100750600Y-84906000D03*
X101250600Y-84906000D03*
X101250600Y-83230000D03*
X100750600Y-83230000D03*
X100250600Y-83230000D03*
%TD*%
D17*
%TO.C,R2*%
X70507121Y-77085378D03*
X70507121Y-75890378D03*
%TD*%
D22*
%TO.C,SW1*%
X24907121Y-103942878D03*
X31407121Y-103942878D03*
X24907121Y-108442878D03*
X31407121Y-108442878D03*
%TD*%
D10*
%TO.C,C4*%
X56107121Y-85742878D03*
X56107121Y-83842878D03*
%TD*%
D28*
%TO.C,R23*%
X87707121Y-106295378D03*
X87707121Y-107490378D03*
%TD*%
D38*
%TO.C,J14*%
X52807121Y-113792878D03*
X53457121Y-113792878D03*
X54107121Y-113792878D03*
X54757121Y-113792878D03*
X55407121Y-113792878D03*
D39*
X50607121Y-116492878D03*
D40*
X51207121Y-116492878D03*
D41*
X51607121Y-113792878D03*
D42*
X53107121Y-116492878D03*
X55107121Y-116492878D03*
D41*
X56607121Y-113792878D03*
D40*
X57007121Y-116492878D03*
D39*
X57607121Y-116492878D03*
%TD*%
D12*
%TO.C,R17*%
X20502121Y-76692878D03*
X19307121Y-76692878D03*
%TD*%
D37*
%TO.C,IC1*%
X100250600Y-111906000D03*
X100750600Y-111906000D03*
X101250600Y-111906000D03*
X101250600Y-110230000D03*
X100750600Y-110230000D03*
X100250600Y-110230000D03*
%TD*%
D23*
%TO.C,C2*%
X50207121Y-107492878D03*
X50207121Y-108627878D03*
%TD*%
D35*
%TO.C,C1*%
X100777400Y-80512000D03*
X103677400Y-80512000D03*
%TD*%
D14*
%TO.C,D7*%
X17304621Y-73692878D03*
X18274621Y-73692878D03*
%TD*%
D17*
%TO.C,R25*%
X85007121Y-107490378D03*
X85007121Y-106295378D03*
%TD*%
D23*
%TO.C,C1*%
X59707121Y-103725378D03*
X59707121Y-104860378D03*
%TD*%
D30*
%TO.C,R15*%
X58457121Y-83482878D03*
X58457121Y-81832878D03*
%TD*%
D43*
%TO.C,IC1*%
X27800000Y-30360000D03*
X27800000Y-31630000D03*
X27800000Y-32900000D03*
X27800000Y-34170000D03*
X27800000Y-35440000D03*
X27800000Y-36710000D03*
X27800000Y-37980000D03*
X27800000Y-39250000D03*
X27800000Y-40520000D03*
X27800000Y-41790000D03*
X27800000Y-43060000D03*
X27800000Y-44330000D03*
X27800000Y-45600000D03*
X27800000Y-46870000D03*
D44*
X30835000Y-48120000D03*
X32105000Y-48120000D03*
X33375000Y-48120000D03*
X34645000Y-48120000D03*
X35915000Y-48120000D03*
X37185000Y-48120000D03*
X38455000Y-48120000D03*
X39725000Y-48120000D03*
X40995000Y-48120000D03*
X42265000Y-48120000D03*
D43*
X45300000Y-46870000D03*
X45300000Y-45600000D03*
X45300000Y-44330000D03*
X45300000Y-43060000D03*
X45300000Y-41790000D03*
X45300000Y-40520000D03*
X45300000Y-39250000D03*
X45300000Y-37980000D03*
X45300000Y-36710000D03*
X45300000Y-35440000D03*
X45300000Y-34170000D03*
X45300000Y-32900000D03*
X45300000Y-31630000D03*
X45300000Y-30360000D03*
D45*
X33650000Y-36680000D03*
X33650000Y-38080000D03*
X33650000Y-39480000D03*
X35050000Y-39480000D03*
X36450000Y-39480000D03*
X36450000Y-38080000D03*
X36450000Y-36680000D03*
X35050000Y-36680000D03*
X35050000Y-38080000D03*
%TD*%
D12*
%TO.C,R14*%
X20522121Y-79692878D03*
X19327121Y-79692878D03*
%TD*%
D18*
%TO.C,J8*%
X33832121Y-66792878D03*
D19*
X31292121Y-66792878D03*
%TD*%
D11*
%TO.C,C4*%
X22700000Y-54885000D03*
X22700000Y-53750000D03*
%TD*%
D12*
%TO.C,R13*%
X20502121Y-82892878D03*
X19307121Y-82892878D03*
%TD*%
D28*
%TO.C,R20*%
X19507121Y-107295378D03*
X19507121Y-108490378D03*
%TD*%
D18*
%TO.C,J3*%
X32900000Y-55250000D03*
D19*
X35440000Y-55250000D03*
X37980000Y-55250000D03*
X40520000Y-55250000D03*
%TD*%
D17*
%TO.C,R22*%
X22507121Y-116090378D03*
X22507121Y-114895378D03*
%TD*%
D46*
%TO.C,J7*%
X50107121Y-65192878D03*
D47*
X52607121Y-65192878D03*
X55107121Y-65192878D03*
X57607121Y-65192878D03*
%TD*%
D33*
%TO.C,R16*%
X41807121Y-73092878D03*
X40157121Y-73092878D03*
%TD*%
D18*
%TO.C,J2*%
X98407000Y-95320000D03*
D19*
X100947000Y-95320000D03*
X103487000Y-95320000D03*
%TD*%
D18*
%TO.C,J1*%
X98280000Y-88640000D03*
D19*
X100820000Y-88640000D03*
X103360000Y-88640000D03*
%TD*%
D18*
%TO.C,J1*%
X56060000Y-55940000D03*
D19*
X56060000Y-53400000D03*
X56060000Y-50860000D03*
X56060000Y-48320000D03*
X56060000Y-45780000D03*
X56060000Y-43240000D03*
X56060000Y-40700000D03*
X56060000Y-38160000D03*
X56060000Y-35620000D03*
X56060000Y-33080000D03*
X56060000Y-30540000D03*
X56060000Y-28000000D03*
X56060000Y-25460000D03*
X56060000Y-22920000D03*
%TD*%
D18*
%TO.C,J1*%
X98280000Y-115640000D03*
D19*
X100820000Y-115640000D03*
X103360000Y-115640000D03*
%TD*%
D18*
%TO.C,J2*%
X98407000Y-68320000D03*
D19*
X100947000Y-68320000D03*
X103487000Y-68320000D03*
%TD*%
D18*
%TO.C,J2*%
X17960000Y-22920000D03*
D19*
X17960000Y-25460000D03*
X17960000Y-28000000D03*
X17960000Y-30540000D03*
X17960000Y-33080000D03*
X17960000Y-35620000D03*
X17960000Y-38160000D03*
X17960000Y-40700000D03*
X17960000Y-43240000D03*
X17960000Y-45780000D03*
X17960000Y-48320000D03*
X17960000Y-50860000D03*
X17960000Y-53400000D03*
X17960000Y-55940000D03*
%TD*%
M02*
