M48
; DRILL file {KiCad 8.0.2} date 2024-05-05T14:46:43+0200
; FORMAT={-:-/ absolute / inch / decimal}
; #@! TF.CreationDate,2024-05-05T14:46:43+02:00
; #@! TF.GenerationSoftware,Kicad,Pcbnew,8.0.2
; #@! TF.FileFunction,Plated,1,2,PTH
FMAT,2
INCH
; #@! TA.AperFunction,Plated,PTH,ViaDrill
T1C0.0118
; #@! TA.AperFunction,Plated,PTH,ViaDrill
T2C0.0157
; #@! TA.AperFunction,Plated,PTH,ComponentDrill
T3C0.0197
; #@! TA.AperFunction,Plated,PTH,ComponentDrill
T4C0.0217
; #@! TA.AperFunction,Plated,PTH,ViaDrill
T5C0.0315
; #@! TA.AperFunction,Plated,PTH,ComponentDrill
T6C0.0354
; #@! TA.AperFunction,Plated,PTH,ComponentDrill
T7C0.0374
; #@! TA.AperFunction,Plated,PTH,ComponentDrill
T8C0.0394
; #@! TA.AperFunction,Plated,PTH,ComponentDrill
T9C0.0433
%
G90
G05
T1
X0.768Y-3.3816
X0.9097Y-3.8816
X1.02Y-3.5824
X1.5672Y-4.1218
X1.5771Y-3.171
X1.6105Y-3.2005
X1.6656Y-4.4092
X1.7286Y-4.6021
X1.7778Y-3.7911
X1.7877Y-3.3501
X1.7877Y-3.3855
X1.7877Y-3.421
X1.7877Y-3.4564
X1.7877Y-3.4918
X1.7877Y-3.5273
X1.7877Y-3.5627
X1.8113Y-2.8698
X1.8271Y-3.3501
X1.8271Y-3.3855
X1.8271Y-3.421
X1.8271Y-3.4564
X1.8271Y-3.4918
X1.8271Y-3.5273
X1.8271Y-3.5627
X1.8566Y-3.2241
X1.8566Y-3.2596
X1.8585Y-4.1336
X1.8625Y-4.1926
X1.892Y-3.2241
X1.892Y-3.2596
X1.894Y-2.8501
X1.894Y-4.4446
X1.894Y-4.5233
X1.9117Y-3.5666
X1.9117Y-3.6021
X1.9117Y-3.8029
X1.9274Y-3.2241
X1.9274Y-3.2596
X1.9629Y-3.2241
X1.9629Y-3.2596
X1.9806Y-2.6926
X1.9944Y-3.3501
X1.9944Y-3.3816
X1.9944Y-3.4131
X1.9944Y-3.4446
X1.9944Y-3.4761
X1.9944Y-3.5076
X2.016Y-4.2753
X2.0692Y-3.3934
X2.0751Y-2.858
X2.1046Y-3.4249
X2.1066Y-3.2553
X2.1066Y-3.8974
X2.1174Y-3.9711
X2.1263Y-2.6966
X2.144Y-3.4249
X2.1499Y-3.2553
X2.1834Y-3.4249
X2.1853Y-3.2553
X2.205Y-3.0742
X2.205Y-3.1096
X2.205Y-3.145
X2.205Y-3.1805
X2.2267Y-3.4249
X2.2286Y-3.2553
X2.3625Y-3.6533
X2.3645Y-3.7261
X2.3664Y-4.4446
X2.3664Y-4.5233
X2.6971Y-3.0706
X2.8684Y-3.1119
X3.1184Y-3.2635
X3.1932Y-4.5115
X3.2641Y-3.7596
X3.2641Y-3.8107
X3.2995Y-4.4761
X3.4255Y-3.8659
X3.4412Y-4.5115
X3.4491Y-3.98
X3.4681Y-3.835
T2
X0.8819Y-2.2126
X0.9646Y-1.9685
X1.189Y-1.2441
X1.189Y-1.2992
X1.2382Y-2.0571
X1.2874Y-1.4724
X1.2874Y-1.5276
X1.3504Y-1.4055
X1.3504Y-1.5906
X1.3957Y-1.8012
X1.4055Y-1.5906
X1.4094Y-1.4055
X1.4724Y-1.4724
X1.4724Y-1.5276
X1.4941Y-1.8012
X1.8661Y-1.8465
X1.9449Y-1.9961
X2.018Y-3.7044
X3.8537Y-3.0898
X3.8537Y-4.1528
X4.1137Y-3.0698
X4.1137Y-4.1328
T5
X2.268Y-2.8659
T6
X1.5554Y-2.6257
X1.7522Y-2.6257
T7
X1.9727Y-2.5666
X2.0711Y-2.5666
X2.1696Y-2.5666
X2.268Y-2.5666
T8
X0.7071Y-0.9024
X0.7071Y-1.0024
X0.7071Y-1.1024
X0.7071Y-1.2024
X0.7071Y-1.3024
X0.7071Y-1.4024
X0.7071Y-1.5024
X0.7071Y-1.6024
X0.7071Y-1.7024
X0.7071Y-1.8024
X0.7071Y-1.9024
X0.7071Y-2.0024
X0.7071Y-2.1024
X0.7071Y-2.2024
X1.0247Y-3.0855
X1.0247Y-3.8855
X1.1247Y-3.0855
X1.1247Y-3.8855
X1.1326Y-2.7714
X1.2247Y-3.0855
X1.2247Y-3.8855
X1.232Y-2.6296
X1.2326Y-2.7714
X1.2326Y-2.917
X1.2953Y-2.1752
X1.332Y-2.6296
X1.3326Y-2.7714
X1.3326Y-2.917
X1.3694Y-3.2588
X1.3694Y-3.3588
X1.3694Y-3.4588
X1.3694Y-3.5588
X1.3694Y-3.6588
X1.3694Y-3.7588
X1.3694Y-3.8588
X1.3694Y-3.9588
X1.3694Y-4.0588
X1.3694Y-4.1588
X1.3694Y-4.2588
X1.3694Y-4.3588
X1.3694Y-4.4588
X1.3694Y-4.5588
X1.3953Y-2.1752
X1.4326Y-2.917
X1.4953Y-2.1752
X1.5953Y-2.1752
X2.2071Y-0.9024
X2.2071Y-1.0024
X2.2071Y-1.1024
X2.2071Y-1.2024
X2.2071Y-1.3024
X2.2071Y-1.4024
X2.2071Y-1.5024
X2.2071Y-1.6024
X2.2071Y-1.7024
X2.2071Y-1.8024
X2.2071Y-1.9024
X2.2071Y-2.0024
X2.2071Y-2.1024
X2.2071Y-2.2024
X2.8694Y-3.2588
X2.8694Y-3.3588
X2.8694Y-3.4588
X2.8694Y-3.5588
X2.8694Y-3.6588
X2.8694Y-3.7588
X2.8694Y-3.8588
X2.8694Y-3.9588
X2.8694Y-4.0588
X2.8694Y-4.1588
X2.8694Y-4.2588
X2.8694Y-4.3588
X2.8694Y-4.4588
X2.8694Y-4.5588
X3.0208Y-3.0903
X3.0208Y-3.8903
X3.1208Y-3.0903
X3.1208Y-3.8903
X3.2208Y-3.0903
X3.2208Y-3.8903
X3.3359Y-2.5981
X3.3359Y-2.6981
X3.3359Y-2.7981
X3.3359Y-2.8981
X3.8693Y-3.4898
X3.8693Y-4.5528
X3.8743Y-2.6898
X3.8743Y-3.7528
X3.9693Y-3.4898
X3.9693Y-4.5528
X3.9743Y-2.6898
X3.9743Y-3.7528
X4.0693Y-3.4898
X4.0693Y-4.5528
X4.0743Y-2.6898
X4.0743Y-3.7528
T9
X0.9806Y-4.0922
X0.9806Y-4.2694
X0.9806Y-4.3915
X0.9806Y-4.5686
X1.2365Y-4.0922
X1.2365Y-4.2694
X1.2365Y-4.3915
X1.2365Y-4.5686
X3.0022Y-4.0942
X3.0022Y-4.2714
X3.0022Y-4.3915
X3.0022Y-4.5686
X3.2582Y-4.0942
X3.2582Y-4.2714
X3.2582Y-4.3915
X3.2582Y-4.5686
T3
G00X1.9924Y-4.5735
M15
G01X1.9924Y-4.5991
M16
G05
G00X2.268Y-4.5735
M15
G01X2.268Y-4.5991
M16
G05
T4
G00X2.0259Y-4.48
M15
G01X2.0377Y-4.48
M16
G05
G00X2.2227Y-4.48
M15
G01X2.2345Y-4.48
M16
G05
M30
