%TF.GenerationSoftware,KiCad,Pcbnew,8.0.2*%
%TF.CreationDate,2024-05-05T14:46:41+02:00*%
%TF.ProjectId,Panelizacja,50616e65-6c69-47a6-9163-6a612e6b6963,rev?*%
%TF.SameCoordinates,Original*%
%TF.FileFunction,Soldermask,Bot*%
%TF.FilePolarity,Negative*%
%FSLAX46Y46*%
G04 Gerber Fmt 4.6, Leading zero omitted, Abs format (unit mm)*
G04 Created by KiCad (PCBNEW 8.0.2) date 2024-05-05 14:46:41*
%MOMM*%
%LPD*%
G01*
G04 APERTURE LIST*
G04 Aperture macros list*
%AMRoundRect*
0 Rectangle with rounded corners*
0 $1 Rounding radius*
0 $2 $3 $4 $5 $6 $7 $8 $9 X,Y pos of 4 corners*
0 Add a 4 corners polygon primitive as box body*
4,1,4,$2,$3,$4,$5,$6,$7,$8,$9,$2,$3,0*
0 Add four circle primitives for the rounded corners*
1,1,$1+$1,$2,$3*
1,1,$1+$1,$4,$5*
1,1,$1+$1,$6,$7*
1,1,$1+$1,$8,$9*
0 Add four rect primitives between the rounded corners*
20,1,$1+$1,$2,$3,$4,$5,0*
20,1,$1+$1,$4,$5,$6,$7,0*
20,1,$1+$1,$6,$7,$8,$9,0*
20,1,$1+$1,$8,$9,$2,$3,0*%
G04 Aperture macros list end*
%ADD10C,1.800000*%
%ADD11R,1.700000X1.700000*%
%ADD12O,1.700000X1.700000*%
%ADD13C,2.000000*%
%ADD14O,0.900000X1.550000*%
%ADD15O,1.250000X0.950000*%
%ADD16RoundRect,0.250000X-0.600000X-0.725000X0.600000X-0.725000X0.600000X0.725000X-0.600000X0.725000X0*%
%ADD17O,1.700000X1.950000*%
G04 APERTURE END LIST*
D10*
%TO.C,J12*%
X39507121Y-66692878D03*
X44507121Y-66692878D03*
%TD*%
D11*
%TO.C,J2*%
X72882121Y-115792878D03*
D12*
X72882121Y-113252878D03*
X72882121Y-110712878D03*
X72882121Y-108172878D03*
X72882121Y-105632878D03*
X72882121Y-103092878D03*
X72882121Y-100552878D03*
X72882121Y-98012878D03*
X72882121Y-95472878D03*
X72882121Y-92932878D03*
X72882121Y-90392878D03*
X72882121Y-87852878D03*
X72882121Y-85312878D03*
X72882121Y-82772878D03*
%TD*%
D13*
%TO.C,SW4*%
X82757121Y-116042878D03*
X76257121Y-116042878D03*
X82757121Y-111542878D03*
X76257121Y-111542878D03*
%TD*%
D11*
%TO.C,J3*%
X31107121Y-98692878D03*
D12*
X28567121Y-98692878D03*
X26027121Y-98692878D03*
%TD*%
D11*
%TO.C,J9*%
X36387121Y-74092878D03*
D12*
X33847121Y-74092878D03*
X31307121Y-74092878D03*
%TD*%
D11*
%TO.C,J11*%
X84732121Y-65992878D03*
D12*
X84732121Y-68532878D03*
X84732121Y-71072878D03*
X84732121Y-73612878D03*
%TD*%
D13*
%TO.C,SW3*%
X76257121Y-103992878D03*
X82757121Y-103992878D03*
X76257121Y-108492878D03*
X82757121Y-108492878D03*
%TD*%
D11*
%TO.C,J5*%
X81807121Y-78492878D03*
D12*
X79267121Y-78492878D03*
X76727121Y-78492878D03*
%TD*%
D11*
%TO.C,J6*%
X81807121Y-98812878D03*
D12*
X79267121Y-98812878D03*
X76727121Y-98812878D03*
%TD*%
D11*
%TO.C,J1*%
X34782121Y-82772878D03*
D12*
X34782121Y-85312878D03*
X34782121Y-87852878D03*
X34782121Y-90392878D03*
X34782121Y-92932878D03*
X34782121Y-95472878D03*
X34782121Y-98012878D03*
X34782121Y-100552878D03*
X34782121Y-103092878D03*
X34782121Y-105632878D03*
X34782121Y-108172878D03*
X34782121Y-110712878D03*
X34782121Y-113252878D03*
X34782121Y-115792878D03*
%TD*%
D11*
%TO.C,J4*%
X31107121Y-78372878D03*
D12*
X28567121Y-78372878D03*
X26027121Y-78372878D03*
%TD*%
D11*
%TO.C,J10*%
X33847121Y-70392878D03*
D12*
X31307121Y-70392878D03*
X28767121Y-70392878D03*
%TD*%
D13*
%TO.C,SW2*%
X24907121Y-111542878D03*
X31407121Y-111542878D03*
X24907121Y-116042878D03*
X31407121Y-116042878D03*
%TD*%
%TO.C,SW1*%
X24907121Y-103942878D03*
X31407121Y-103942878D03*
X24907121Y-108442878D03*
X31407121Y-108442878D03*
%TD*%
D14*
%TO.C,J14*%
X50607121Y-116492878D03*
D15*
X51607121Y-113792878D03*
X56607121Y-113792878D03*
D14*
X57607121Y-116492878D03*
%TD*%
D11*
%TO.C,J8*%
X33832121Y-66792878D03*
D12*
X31292121Y-66792878D03*
%TD*%
D11*
%TO.C,J3*%
X32900000Y-55250000D03*
D12*
X35440000Y-55250000D03*
X37980000Y-55250000D03*
X40520000Y-55250000D03*
%TD*%
D16*
%TO.C,J7*%
X50107121Y-65192878D03*
D17*
X52607121Y-65192878D03*
X55107121Y-65192878D03*
X57607121Y-65192878D03*
%TD*%
D11*
%TO.C,J2*%
X98407000Y-95320000D03*
D12*
X100947000Y-95320000D03*
X103487000Y-95320000D03*
%TD*%
D11*
%TO.C,J1*%
X98280000Y-88640000D03*
D12*
X100820000Y-88640000D03*
X103360000Y-88640000D03*
%TD*%
D11*
%TO.C,J1*%
X56060000Y-55940000D03*
D12*
X56060000Y-53400000D03*
X56060000Y-50860000D03*
X56060000Y-48320000D03*
X56060000Y-45780000D03*
X56060000Y-43240000D03*
X56060000Y-40700000D03*
X56060000Y-38160000D03*
X56060000Y-35620000D03*
X56060000Y-33080000D03*
X56060000Y-30540000D03*
X56060000Y-28000000D03*
X56060000Y-25460000D03*
X56060000Y-22920000D03*
%TD*%
D11*
%TO.C,J1*%
X98280000Y-115640000D03*
D12*
X100820000Y-115640000D03*
X103360000Y-115640000D03*
%TD*%
D11*
%TO.C,J2*%
X98407000Y-68320000D03*
D12*
X100947000Y-68320000D03*
X103487000Y-68320000D03*
%TD*%
D11*
%TO.C,J2*%
X17960000Y-22920000D03*
D12*
X17960000Y-25460000D03*
X17960000Y-28000000D03*
X17960000Y-30540000D03*
X17960000Y-33080000D03*
X17960000Y-35620000D03*
X17960000Y-38160000D03*
X17960000Y-40700000D03*
X17960000Y-43240000D03*
X17960000Y-45780000D03*
X17960000Y-48320000D03*
X17960000Y-50860000D03*
X17960000Y-53400000D03*
X17960000Y-55940000D03*
%TD*%
M02*
